<?xml version="1.0" standalone="no"?>
<!DOCTYPE svg PUBLIC "-//W3C//DTD SVG 20010904//EN"
 "http://www.w3.org/TR/2001/REC-SVG-20010904/DTD/svg10.dtd">
<svg version="1.0" xmlns="http://www.w3.org/2000/svg"
 width="640.000000pt" height="950.000000pt" viewBox="0 0 640.000000 950.000000"
 preserveAspectRatio="xMidYMid meet">

<g transform="translate(0.000000,950.000000) scale(0.100000,-0.100000)"
fill="#000000" stroke="none">
<path d="M1865 9466 c14 -19 38 -42 52 -52 20 -12 15 -3 -18 35 -49 57 -74 70
-34 17z"/>
<path d="M1990 9445 c0 -74 34 -221 67 -292 34 -72 110 -148 163 -164 35 -11
43 -20 69 -73 56 -117 145 -233 208 -273 16 -9 3 9 -30 43 -66 67 -97 114
-132 205 -14 34 -25 64 -25 66 0 2 15 3 33 4 l32 1 -33 8 c-18 4 -35 10 -38
12 -12 13 -35 153 -40 242 -2 55 -3 98 -1 95 1 -2 9 -13 17 -23 10 -13 10 -17
3 -12 -19 11 -16 -4 21 -101 91 -235 183 -369 318 -462 l63 -44 -66 69 c-83
88 -109 123 -158 220 -45 90 -77 178 -86 244 l-6 45 45 -79 c25 -43 46 -80 46
-82 0 -5 120 -180 185 -269 115 -158 141 -218 130 -298 -7 -46 -10 -50 -53
-69 l-45 -20 -36 21 c-87 52 -194 101 -301 139 -137 47 -198 61 -305 66 -88 4
-113 -5 -220 -85 -125 -94 -158 -136 -189 -239 -14 -47 -50 -166 -81 -265 -63
-208 -122 -452 -131 -545 -3 -36 -14 -108 -25 -160 -19 -95 -27 -146 -54 -340
-31 -221 -45 -329 -54 -441 -16 -187 -83 -557 -166 -909 -13 -58 -40 -175 -60
-260 -20 -85 -47 -193 -60 -240 -22 -78 -48 -201 -105 -500 -12 -63 -38 -182
-57 -265 -39 -166 -62 -275 -128 -600 -24 -121 -51 -251 -60 -290 -8 -38 -22
-110 -31 -160 -9 -54 -37 -145 -69 -226 -86 -218 -112 -306 -146 -494 -11 -60
-29 -143 -40 -182 -10 -40 -19 -86 -19 -103 0 -37 -35 -171 -59 -225 -10 -22
-24 -58 -31 -80 -22 -67 -163 -347 -227 -447 -31 -50 -33 -152 -4 -168 25 -13
44 -13 36 0 -4 6 -9 8 -13 6 -4 -2 -13 2 -19 10 -8 8 -9 15 -3 19 6 3 10 1 10
-6 0 -7 7 -4 15 7 12 15 14 16 9 2 -3 -10 1 -24 9 -33 14 -13 31 -14 129 -5
123 11 271 13 303 4 11 -3 25 -16 31 -29 11 -22 7 -25 -62 -60 l-73 -37 -7
-56 c-4 -31 -13 -71 -20 -89 -8 -18 -14 -46 -14 -63 0 -17 -4 -38 -9 -48 -5
-9 -22 -71 -38 -137 -31 -133 -35 -234 -11 -281 8 -16 25 -50 37 -75 25 -53
159 -221 170 -214 7 4 26 -26 68 -107 8 -16 36 -39 64 -53 51 -25 173 -120
218 -169 25 -27 41 -33 41 -16 0 18 -173 161 -239 197 -36 20 -66 37 -67 37
-1 1 -4 14 -8 29 -7 28 -6 29 26 22 52 -11 238 -74 295 -100 71 -33 148 -53
213 -57 55 -3 55 -3 58 27 5 53 -96 176 -189 231 -49 29 -56 43 -43 90 7 27
86 43 257 51 70 3 127 10 127 14 0 5 -4 9 -10 9 -5 0 -7 7 -4 15 7 17 40 20
49 5 3 -6 -1 -13 -9 -16 -20 -8 -21 -24 -1 -24 8 0 19 10 26 22 15 27 -1 41
-136 116 -33 18 -118 32 -191 32 -66 0 -70 3 -55 43 12 30 95 56 231 71 92 11
95 12 95 36 0 19 -9 29 -35 42 -19 9 -41 22 -47 28 -24 20 -59 27 -131 26
l-73 -1 5 35 c3 19 8 82 11 140 11 191 16 197 127 146 40 -18 111 -45 158 -61
47 -15 90 -32 97 -39 6 -6 30 -63 53 -126 22 -63 47 -131 55 -150 91 -236 163
-417 199 -502 24 -56 51 -137 60 -178 10 -41 27 -106 40 -145 l23 -70 1485 -3
1485 -2 16 97 c10 54 17 112 17 128 0 17 4 35 8 41 4 7 54 37 111 68 l104 57
74 -36 75 -35 161 152 c271 257 314 303 312 337 -1 16 -9 41 -19 55 -15 24
-15 28 0 51 18 27 31 27 88 -2 27 -14 31 -13 80 17 73 46 175 132 175 150 1 8
-8 47 -19 85 -11 39 -38 143 -60 231 -43 175 -113 370 -180 505 -20 39 -75
226 -114 384 -27 114 -35 135 -46 135 -5 0 2 -41 16 -91 13 -50 24 -99 24
-110 0 -11 4 -27 9 -37 5 -9 23 -66 40 -126 18 -60 55 -163 83 -230 95 -226
128 -334 193 -626 9 -41 19 -83 22 -92 4 -17 -7 -18 -125 -18 -132 0 -202 8
-183 20 8 4 7 22 -4 61 -32 114 -40 135 -60 151 -18 16 -19 17 -2 18 17 0 17
2 3 22 -28 40 -21 48 43 48 33 0 63 5 66 10 4 6 -5 10 -19 10 -43 0 -116 23
-116 37 0 7 -5 13 -12 13 -6 0 -3 7 8 15 16 13 16 14 2 9 -18 -6 -23 7 -19 49
1 9 -3 17 -9 17 -6 0 -8 5 -5 10 3 5 -1 10 -9 10 -9 0 -16 5 -16 10 0 6 7 10
15 10 8 0 15 5 15 11 0 6 -7 9 -15 5 -17 -6 -21 9 -5 19 6 3 10 12 10 18 0 8
-3 8 -9 -1 -6 -10 -12 -5 -21 20 -7 18 -13 41 -13 50 0 10 -4 15 -10 11 -6 -4
-8 2 -5 15 5 17 1 23 -18 28 -14 4 -28 4 -31 1 -9 -9 5 -54 23 -71 9 -9 13
-24 9 -35 -3 -11 6 -64 20 -119 14 -56 25 -111 25 -124 0 -13 5 -29 12 -36 7
-7 9 -12 5 -12 -4 0 -2 -10 4 -22 7 -13 13 -34 14 -48 2 -21 28 -125 51 -202
3 -10 2 -18 -3 -18 -5 0 -19 44 -33 98 -13 53 -27 102 -30 107 -4 6 -8 17 -8
25 0 8 -10 51 -20 95 -11 44 -34 139 -52 210 -17 72 -35 137 -39 145 -5 9 -31
18 -67 23 -132 18 -151 26 -46 20 116 -6 113 -10 82 77 -24 68 -25 108 -3 132
15 17 15 18 0 18 -13 0 -17 10 -17 42 0 110 -1 114 -9 94 -7 -18 -8 -18 -14
-2 -4 10 -7 22 -7 27 0 12 144 12 190 0 58 -15 106 -21 90 -12 -8 4 -75 21
-148 36 -132 28 -178 48 -150 66 8 6 9 9 1 9 -6 0 -9 9 -6 23 4 18 3 20 -7 7
-10 -13 -11 -13 -7 2 5 15 -27 266 -35 273 -2 1 -19 5 -39 9 l-36 6 -28 -82
c-15 -46 -32 -94 -37 -107 -16 -44 -18 -15 -2 55 9 38 17 76 18 84 1 9 5 21
10 28 12 19 2 15 -105 -45 -120 -69 -126 -73 -225 -142 -76 -54 -231 -206
-226 -222 1 -5 -2 -8 -7 -7 -5 2 -77 -62 -161 -142 -192 -182 -243 -222 -273
-211 -12 5 -23 16 -25 25 -10 48 139 213 335 373 32 26 67 55 78 66 11 10 45
35 75 54 30 20 69 47 85 60 17 13 35 27 40 31 6 4 27 18 47 31 34 20 88 81 73
81 -4 0 -33 -18 -65 -41 -59 -41 -80 -44 -80 -8 0 29 -38 25 -50 -6 -10 -26
-45 -46 -67 -38 -7 3 -27 -7 -46 -21 -43 -33 -81 -33 -114 0 -19 19 -24 33
-21 55 3 16 2 29 -1 29 -3 0 -29 -23 -58 -52 -44 -44 -54 -49 -67 -38 -9 7
-16 15 -16 19 0 12 133 142 160 156 14 7 45 34 67 58 23 25 44 43 47 40 2 -3
2 5 -1 16 -4 16 -2 20 10 16 8 -4 29 7 48 25 l34 31 -30 24 c-19 16 -33 21
-39 15 -15 -15 -30 -12 -19 3 8 8 2 19 -18 35 -31 25 -33 23 -30 -33 l1 -20
-9 20 c-9 21 -8 26 5 60 4 11 6 28 5 38 -1 10 4 17 15 17 14 0 15 -2 3 -17
-10 -11 -10 -14 -2 -9 7 4 13 2 13 -3 0 -6 -4 -11 -10 -11 -5 0 -10 -4 -10
-10 0 -12 26 -14 33 -2 2 4 2 1 1 -5 -4 -14 6 -16 30 -7 13 5 14 9 5 20 -9 11
-8 14 5 14 9 0 16 -8 16 -20 0 -12 -7 -20 -16 -20 -13 0 -12 -5 7 -24 23 -22
61 -46 73 -46 3 0 23 15 43 33 21 18 64 52 95 74 32 22 55 43 51 47 -3 3 -1 6
6 6 7 0 9 5 6 10 -4 7 -14 6 -28 -2 -14 -7 -17 -13 -9 -16 7 -2 -3 -14 -23
-28 -47 -32 -58 -31 -15 1 19 14 27 25 19 25 -8 0 -1 9 16 20 29 19 30 19 49
1 19 -19 18 -20 -10 -46 -16 -15 -23 -23 -15 -19 9 5 12 3 7 -4 -4 -7 -16 -12
-28 -12 -18 0 -19 -2 -7 -17 10 -12 10 -14 1 -9 -15 9 -93 -44 -88 -60 2 -6
-6 -10 -17 -10 -34 1 -31 -28 5 -47 18 -10 42 -23 53 -30 11 -7 41 -25 68 -41
26 -15 47 -31 47 -36 0 -4 -9 -19 -20 -33 -18 -22 -18 -25 -2 -23 12 1 18 -8
20 -26 4 -33 3 -33 44 -9 18 10 49 27 68 37 19 11 40 24 47 31 7 6 32 21 56
33 23 12 49 27 57 33 19 14 73 157 60 157 -6 0 -9 8 -8 18 3 36 -2 63 -11 57
-5 -3 -13 0 -17 6 -4 8 -3 9 5 5 15 -10 26 21 13 37 -5 6 -15 44 -21 82 -13
84 -39 178 -40 150 -2 -19 -2 -20 -13 -1 -8 14 -8 24 1 37 6 11 11 27 10 36 0
11 -3 13 -6 6 -2 -7 -11 -13 -19 -13 -8 0 -11 6 -8 15 4 9 -3 16 -23 21 -15 4
-41 16 -58 27 l-30 19 35 -6 c19 -3 46 -8 60 -11 17 -5 21 -4 12 3 -8 5 -13
13 -11 18 1 5 -8 14 -21 20 -12 7 -17 13 -10 16 7 2 3 12 -9 25 -12 12 -18 29
-15 37 4 9 0 18 -9 22 -12 4 -14 11 -6 31 12 32 12 33 -6 27 -11 -4 -15 1 -16
17 0 13 -2 32 -4 41 -3 15 3 17 43 12 26 -3 56 -9 67 -14 11 -4 32 -12 48 -19
15 -6 27 -18 27 -28 0 -10 9 -43 21 -73 11 -30 24 -66 29 -80 57 -171 114
-312 123 -303 12 11 8 34 -17 92 -35 82 -95 236 -121 312 -19 56 -53 113 -157
268 -11 16 -18 45 -18 74 0 27 -9 85 -19 130 -20 84 -35 178 -45 280 l-6 57
64 0 c196 0 539 58 623 106 47 27 111 103 145 172 22 44 23 58 21 217 -1 116
-7 194 -18 245 -9 41 -23 109 -30 150 -8 41 -34 140 -59 220 -25 80 -61 208
-80 285 -95 383 -148 574 -199 715 -31 85 -70 211 -87 280 -17 69 -46 163 -65
210 -19 47 -62 159 -95 250 -83 226 -108 274 -182 346 -91 88 -181 146 -289
183 -267 92 -299 108 -409 203 -52 45 -122 93 -179 122 -113 58 -164 107 -158
151 4 25 -2 36 -32 61 -35 31 -35 33 -18 51 9 11 17 30 17 44 0 18 12 32 46
53 69 43 159 131 224 216 53 70 143 213 170 270 8 16 39 38 89 62 42 21 97 58
123 82 30 28 61 47 83 52 78 14 181 118 245 244 22 43 70 175 70 192 0 4 -13
8 -30 8 -26 0 -30 -4 -35 -37 -25 -154 -98 -305 -172 -356 -38 -26 -93 -51
-93 -42 0 3 15 27 33 53 57 81 106 176 137 266 40 115 40 116 -18 116 l-48 0
-13 -62 c-30 -146 -114 -321 -189 -394 -49 -48 -92 -80 -118 -88 -19 -6 -17 3
23 104 32 80 55 122 84 153 58 61 189 256 189 282 0 3 -106 5 -235 5 l-234 0
-28 -47 c-39 -69 -140 -190 -178 -213 -40 -25 -130 -27 -163 -4 -12 8 -22 11
-22 6 0 -15 33 -40 63 -47 15 -4 27 -11 27 -15 0 -10 -86 -40 -116 -40 -13 0
-26 -4 -29 -10 -10 -17 76 -12 158 9 85 22 140 48 210 97 26 19 47 32 47 29 0
-20 -100 -201 -130 -237 -34 -39 -145 -118 -395 -280 -96 -63 -189 -108 -221
-108 -28 0 -210 116 -355 227 -42 32 -98 74 -125 93 -116 84 -258 316 -296
482 l-12 58 -122 -1 -122 0 14 -27 c26 -51 15 -57 -29 -14 l-43 42 -147 -1
c-81 0 -147 -3 -147 -5 0 -11 42 -159 47 -167 3 -6 12 -50 19 -99 8 -49 23
-119 34 -155 11 -36 18 -68 16 -70 -10 -10 -100 85 -123 130 -33 66 -62 183
-70 284 l-6 83 -28 0 c-28 0 -29 -1 -29 -55z m217 13 c-3 -8 -6 -5 -6 6 -1 11
2 17 5 13 3 -3 4 -12 1 -19z m408 -88 c15 -54 45 -128 70 -173 24 -42 40 -75
35 -72 -5 3 -25 35 -45 71 -42 74 -80 180 -89 245 -7 55 -4 47 29 -71z m-386
25 c0 -5 -4 -3 -9 5 -5 8 -9 22 -9 30 0 16 17 -16 18 -35z m2341 -77 c-89
-225 -189 -374 -285 -425 -21 -11 -15 -2 23 32 29 26 72 73 96 104 46 59 127
214 167 318 13 34 25 60 28 58 2 -3 -11 -42 -29 -87z m-248 -53 c-6 -53 -10
-61 -34 -69 -15 -5 -30 -7 -33 -4 -3 3 7 32 22 64 51 106 58 108 45 9z m-1992
-40 c13 -14 21 -25 18 -25 -2 0 -15 11 -28 25 -13 14 -21 25 -18 25 2 0 15
-11 28 -25z m470 -16 c0 -6 -4 -7 -10 -4 -5 3 -10 11 -10 16 0 6 5 7 10 4 6
-3 10 -11 10 -16z m20 -37 c0 -5 38 -55 85 -111 47 -57 85 -106 85 -110 0 -3
16 -17 35 -30 41 -28 44 -38 10 -38 -22 0 -23 2 -13 15 11 13 9 14 -12 8 -18
-5 -21 -5 -10 3 8 5 11 13 8 16 -4 4 -13 1 -21 -6 -13 -12 -12 -16 5 -31 13
-11 16 -18 7 -23 -6 -4 -15 -1 -20 6 -5 8 -9 10 -9 4 0 -5 -6 -1 -12 9 -9 16
-7 23 12 38 21 17 19 19 -12 22 -7 1 -16 5 -19 9 -3 5 -9 2 -12 -7 -4 -9 -1
-15 5 -13 6 1 13 -4 16 -12 2 -8 0 -11 -6 -7 -6 4 -8 -2 -5 -15 6 -23 62 -61
79 -55 7 3 10 -3 7 -14 -14 -52 -45 -21 -139 136 -7 11 -14 17 -17 14 -9 -8 4
-90 13 -85 4 3 10 -5 13 -16 5 -20 5 -20 -13 -4 -15 14 -32 61 -35 100 0 6 -3
15 -7 20 -3 6 -13 37 -21 70 -28 115 -29 115 -12 115 8 0 15 -4 15 -8z m1474
-29 c-3 -21 -14 -67 -24 -103 -26 -91 -34 -124 -32 -132 1 -5 -2 -8 -8 -8 -5
0 -10 -4 -10 -10 0 -5 8 -10 18 -10 12 0 10 -5 -10 -18 -16 -9 -28 -21 -28
-26 0 -5 -6 -17 -14 -25 -8 -9 -16 -22 -18 -30 -4 -19 -35 -51 -49 -51 -5 0
-8 -4 -5 -9 4 -5 -12 -24 -35 -42 -30 -24 -38 -27 -28 -11 7 11 22 23 32 26
10 2 16 9 13 14 -3 5 8 28 25 51 40 56 95 184 107 249 9 52 9 52 -10 35 -10
-9 -44 -48 -75 -85 -30 -37 -59 -65 -64 -62 -8 5 -13 -10 -10 -29 1 -4 -9 -18
-21 -30 -13 -13 -31 -34 -40 -47 -16 -24 -16 -24 -11 -2 3 12 8 22 12 22 4 0
8 11 9 25 3 41 30 84 90 144 32 31 73 85 92 121 32 59 49 74 93 79 4 1 5 -16
1 -36z m-98 -194 c-13 -35 -38 -92 -57 -127 -36 -67 -135 -185 -149 -177 -11
7 7 94 27 124 26 41 196 252 199 248 2 -2 -7 -32 -20 -68z m-196 -103 c-13
-28 -23 -79 -27 -132 -5 -70 -9 -87 -26 -95 -25 -14 -107 -2 -114 17 -10 26
46 120 114 193 36 40 67 70 69 68 3 -2 -5 -25 -16 -51z m-930 -1 c0 -14 -5
-25 -11 -25 -6 0 -8 9 -4 23 5 17 4 19 -4 7 -8 -12 -11 -12 -11 -1 0 8 -7 11
-20 8 -11 -3 -18 -1 -14 4 3 5 18 9 35 9 24 0 29 -4 29 -25z m-109 -37 c6 -11
5 -19 -1 -23 -9 -6 -41 52 -40 72 1 9 26 -22 41 -49z m1233 -100 c-21 -51 -47
-110 -59 -130 -33 -59 -110 -153 -144 -177 l-31 -22 0 25 c0 14 10 54 21 88
l22 62 -27 21 c-32 25 -33 35 -4 35 58 0 169 85 224 172 41 65 40 31 -2 -74z
m-330 56 c-19 -26 -38 -60 -41 -75 -5 -27 -33 -42 -33 -18 0 6 -7 9 -15 5 -12
-4 -13 -2 -6 13 6 10 8 21 5 24 -10 9 36 28 49 21 9 -6 9 -4 -1 8 -10 12 -9
18 3 28 12 10 15 10 15 0 0 -7 9 -1 21 14 11 14 25 26 30 26 5 0 -7 -21 -27
-46z m-1023 -71 c21 -23 37 -48 34 -55 -2 -7 -9 -32 -15 -55 -10 -38 -42 -83
-60 -83 -4 0 -10 37 -13 83 -3 45 -15 111 -26 147 -12 36 -21 67 -21 70 0 3
14 -11 31 -30 17 -19 48 -54 70 -77z m899 -28 c0 -18 -26 -20 -36 -3 -5 8 -2
9 9 5 10 -3 17 -2 17 3 0 6 2 10 5 10 3 0 5 -7 5 -15z m50 -15 c0 -5 -4 -10
-10 -10 -5 0 -10 5 -10 10 0 6 5 10 10 10 6 0 10 -4 10 -10z m-1627 -27 c-7
-2 -19 -2 -25 0 -7 3 -2 5 12 5 14 0 19 -2 13 -5z m727 -111 c-29 -5 -36 4
-19 24 12 14 14 14 27 -3 11 -16 11 -18 -8 -21z m159 -7 c16 -8 31 -25 34 -37
l6 -23 -18 24 c-13 16 -24 21 -38 17 -13 -4 -26 1 -38 14 -18 19 -18 20 4 20
12 0 35 -7 50 -15z m198 -41 c-3 -3 -12 -4 -19 -1 -8 3 -5 6 6 6 11 1 17 -2
13 -5z m-113 -29 c11 -8 15 -15 10 -15 -6 0 -19 7 -30 15 -10 8 -14 14 -9 14
6 0 19 -6 29 -14z m77 -12 c13 -16 12 -17 -3 -4 -10 7 -18 15 -18 17 0 8 8 3
21 -13z m82 10 c-7 -2 -19 -2 -25 0 -7 3 -2 5 12 5 14 0 19 -2 13 -5z m72 -23
c3 -5 -1 -10 -9 -10 -8 0 -18 5 -21 10 -3 6 1 10 9 10 8 0 18 -4 21 -10z m72
-7 c23 -5 74 -53 56 -53 -6 0 -16 7 -23 15 -7 8 -18 15 -26 15 -20 0 -64 22
-64 33 0 5 8 6 18 2 9 -4 27 -10 39 -12z m113 -28 c9 -11 5 -12 -24 -3 -20 6
-36 14 -36 18 0 12 48 -1 60 -15z m-265 -15 c10 -11 16 -20 13 -20 -3 0 -13 9
-23 20 -10 11 -16 20 -13 20 3 0 13 -9 23 -20z m320 -30 c18 -8 17 -9 -7 -9
-15 -1 -30 4 -33 9 -7 12 12 12 40 0z m81 -50 c34 -8 49 5 17 13 -10 3 -3 5
15 6 32 1 38 -4 24 -26 -10 -16 -88 -5 -104 15 -11 13 -11 14 1 8 7 -5 29 -12
47 -16z m154 -2 c0 -11 -47 -21 -65 -14 -28 10 -15 22 25 21 22 0 40 -3 40 -7z
m-424 -19 c16 -17 16 -22 4 -29 -23 -15 -34 -12 -20 5 10 12 9 16 -4 21 -9 3
-16 10 -16 15 0 15 16 10 36 -12z m484 6 c-9 -11 -9 -15 -1 -15 7 0 9 -5 6
-11 -5 -7 -14 -4 -26 7 -26 23 -24 34 7 34 22 0 25 -2 14 -15z m-115 -40 c-22
-14 -49 -25 -59 -25 -24 0 -19 5 30 30 56 28 76 24 29 -5z m98 -12 c-7 -2 -13
-10 -13 -17 0 -26 -190 -171 -213 -163 -7 3 -2 9 13 15 14 6 65 47 114 91 50
45 95 81 100 80 6 0 5 -3 -1 -6z m-193 -23 c-8 -5 -22 -9 -30 -9 -10 0 -8 3 5
9 27 12 43 12 25 0z m-186 -16 c5 -14 4 -15 -9 -4 -17 14 -19 20 -6 20 5 0 12
-7 15 -16z m126 -4 c-8 -5 -24 -9 -35 -9 l-20 0 20 9 c11 5 27 9 35 9 13 1 13
0 0 -9z m-150 -32 c0 -6 -6 -5 -15 2 -8 7 -15 14 -15 16 0 2 7 1 15 -2 8 -4
15 -11 15 -16z m40 -34 c0 -2 -7 -4 -15 -4 -8 0 -15 4 -15 10 0 5 7 7 15 4 8
-4 15 -8 15 -10z m40 6 c0 -5 -7 -10 -16 -10 -8 0 -12 5 -9 10 3 6 10 10 16
10 5 0 9 -4 9 -10z m28 -40 c8 0 13 -3 9 -6 -10 -10 -48 7 -40 19 5 8 8 8 11
-1 2 -7 11 -12 20 -12z m59 -59 c49 -63 76 -131 52 -131 -8 0 -36 13 -63 28
-38 21 -51 36 -62 67 -16 47 -17 58 -5 50 5 -3 13 -1 16 5 8 14 46 2 62 -19z
m-1396 -1946 c53 -77 119 -178 147 -225 l50 -85 4 -120 4 -120 -46 -40 c-55
-48 -100 -108 -100 -134 0 -10 -7 -35 -16 -56 -8 -21 -16 -50 -16 -66 -1 -23
-17 -39 -102 -100 -56 -40 -103 -76 -106 -79 -3 -3 -23 -18 -45 -34 -22 -16
-55 -43 -72 -59 -18 -17 -33 -28 -33 -24 0 11 34 81 47 97 19 24 81 210 88
265 3 28 2 195 -4 372 -9 303 -8 328 10 420 17 87 28 131 45 183 4 10 12 4 26
-20 12 -19 65 -98 119 -175z m1055 -41 c-3 -9 -6 -25 -6 -35 0 -11 -5 -17 -10
-14 -8 5 -8 39 -1 63 1 1 6 2 12 2 6 0 8 -7 5 -16z m580 -24 c42 -16 23 -21
-21 -5 -22 8 -32 14 -23 15 9 0 29 -5 44 -10z m99 -29 c6 -3 19 -7 29 -8 19
-3 191 -76 212 -91 15 -10 27 -262 13 -262 -6 0 -8 4 -4 9 3 6 -10 17 -30 27
-19 9 -35 20 -35 25 0 5 -3 8 -7 7 -9 -1 -14 1 -118 44 -42 18 -79 27 -92 23
-16 -4 -23 -1 -23 9 0 10 -20 19 -57 27 -32 6 -89 20 -128 30 l-70 18 60 -6
c33 -2 86 -11 118 -19 67 -16 79 -13 73 22 -3 13 -1 24 3 24 14 0 19 36 9 54
-5 9 -13 14 -18 11 -4 -3 -19 0 -32 5 -22 10 -22 10 5 7 15 -3 30 0 33 4 3 5
-3 9 -13 9 -16 1 -16 2 2 12 30 16 31 18 15 29 -11 7 -6 8 15 3 17 -4 35 -9
40 -13z m-137 -9 c8 -6 2 -9 -17 -9 -17 0 -28 4 -25 9 7 10 25 10 42 0z m-557
-150 c-8 -12 -10 3 -11 59 0 42 3 79 8 83 11 12 14 -122 3 -142z m627 65 c7 0
11 -5 9 -11 -5 -15 -87 -21 -87 -6 0 6 11 8 28 5 25 -5 25 -5 5 4 -32 14 -29
25 5 16 15 -4 33 -8 40 -8z m-101 -13 c-3 -3 -12 -4 -19 -1 -8 3 -5 6 6 6 11
1 17 -2 13 -5z m641 -121 c95 -65 240 -215 240 -250 l0 -27 -30 34 c-50 59
-121 130 -130 130 -22 0 -1 -28 77 -102 l85 -81 0 -96 c0 -66 3 -91 10 -81 5
8 10 39 10 69 0 46 2 52 15 41 8 -6 26 -32 40 -57 15 -24 29 -42 32 -39 4 3
-14 36 -39 74 -25 37 -47 83 -50 101 l-5 34 27 -33 c15 -19 36 -50 46 -69 10
-20 34 -63 53 -95 l36 -60 0 -123 c0 -68 -3 -123 -7 -123 -4 0 -24 26 -45 58
-20 31 -52 76 -71 99 -18 23 -37 54 -41 70 -4 15 -14 28 -22 28 -22 1 -40 15
-33 27 4 6 2 8 -3 5 -13 -8 -36 17 -25 27 4 4 0 6 -8 4 -8 -1 -14 4 -15 12 0
9 -8 14 -18 12 -9 -2 -17 3 -17 12 0 16 -59 86 -72 86 -5 0 -6 -6 -2 -12 4 -7
4 -10 0 -6 -4 3 -7 9 -6 13 3 13 -53 64 -63 58 -6 -3 -7 -2 -4 3 3 5 -11 21
-31 34 -20 14 -47 35 -60 48 -14 12 -31 22 -38 22 -9 0 -13 23 -16 80 -2 44 1
80 5 80 4 0 35 -14 68 -30 37 -19 57 -35 53 -42 -4 -7 -3 -8 4 -4 12 7 48 -8
70 -31 15 -14 42 -18 42 -5 0 5 -10 17 -22 28 -23 19 -36 26 -160 84 -65 30
-68 33 -68 66 l0 34 61 -30 c33 -17 91 -52 127 -77z m-841 75 c-3 -8 -6 -5 -6
6 -1 11 2 17 5 13 3 -3 4 -12 1 -19z m294 15 c-11 -4 -11 -7 0 -14 23 -14 2
-21 -22 -8 -23 12 -23 12 -4 20 11 4 25 8 30 8 6 -1 4 -3 -4 -6z m-663 -10
c-10 -2 -26 -2 -35 0 -10 3 -2 5 17 5 19 0 27 -2 18 -5z m-71 -9 c-3 -3 -12
-4 -19 -1 -8 3 -5 6 6 6 11 1 17 -2 13 -5z m-50 -10 c-3 -3 -12 -4 -19 -1 -8
3 -5 6 6 6 11 1 17 -2 13 -5z m-54 -11 c-7 -2 -19 -2 -25 0 -7 3 -2 5 12 5 14
0 19 -2 13 -5z m2362 -103 c3 -5 1 -10 -4 -10 -6 0 -11 5 -11 10 0 6 2 10 4
10 3 0 8 -4 11 -10z m-1622 -15 c13 4 44 1 68 -6 24 -7 51 -13 59 -14 25 -3
124 -37 135 -46 5 -5 19 -9 32 -9 14 0 23 -6 23 -15 0 -11 7 -14 24 -9 13 3
27 1 30 -5 5 -7 1 -8 -10 -4 -12 4 -15 3 -10 -6 5 -7 17 -11 27 -8 11 3 17 1
13 -4 -3 -5 -1 -9 3 -9 13 0 -6 -362 -19 -375 -3 -3 -39 8 -79 24 -42 17 -111
34 -159 40 -94 12 -109 15 -160 30 -56 17 -64 12 -34 -25 8 -10 13 -13 9 -6
-7 15 -8 14 35 2 19 -6 73 -15 120 -20 47 -6 127 -25 179 -42 l94 -32 -6 -76
c-19 -235 -18 -230 -41 -230 -32 0 -66 11 -66 21 0 5 18 9 40 9 28 0 40 4 40
15 0 19 -36 39 -45 24 -4 -6 -13 -8 -21 -5 -8 3 -14 -1 -14 -9 0 -16 -18 -30
-27 -21 -3 3 0 12 7 21 7 8 10 21 7 30 -5 12 2 14 33 11 22 -2 40 0 40 5 0 5
-9 9 -20 9 -10 0 -24 9 -30 20 -8 15 -21 20 -50 20 -28 0 -40 4 -40 14 0 17
-31 30 -40 17 -3 -6 -26 -12 -50 -15 -35 -4 -38 -4 -14 3 40 10 54 19 54 34 0
8 -2 9 -8 1 -4 -6 -20 -14 -37 -18 -20 -4 -25 -3 -16 3 21 14 -22 33 -55 25
-23 -6 -26 -4 -21 9 6 17 -18 37 -45 37 -10 0 -9 -3 2 -11 12 -8 9 -9 -12 -5
-27 6 -28 5 -28 -39 0 -42 2 -45 28 -46 34 0 190 -34 199 -42 14 -14 -4 -15
-59 -2 -31 7 -83 16 -116 20 l-59 7 -6 -54 c-6 -57 -26 -234 -32 -277 -1 -14
-3 -44 -4 -65 0 -22 -4 -36 -8 -33 -7 7 -5 110 2 148 3 12 7 72 10 133 3 61 8
120 10 131 4 18 -4 22 -60 33 -36 7 -79 12 -96 12 -17 0 -59 4 -93 10 -33 5
-82 12 -109 16 -26 3 -45 9 -43 13 3 4 67 0 143 -10 76 -9 166 -19 201 -23
l62 -7 0 36 c0 25 -5 38 -17 42 -26 10 -45 31 -38 42 3 6 12 8 20 5 8 -4 12
-10 9 -15 -3 -5 -1 -9 4 -9 9 0 34 92 27 99 -2 2 -12 0 -22 -4 -10 -5 -31 -9
-48 -10 -16 -1 -24 0 -17 2 6 3 12 12 12 22 0 9 5 22 12 29 6 6 8 15 4 19 -4
4 -11 1 -16 -7 -7 -11 -12 -12 -20 -4 -21 21 39 28 63 7 11 -10 17 -12 13 -5
-4 7 -1 12 8 12 9 0 13 -7 11 -20 -2 -11 0 -20 4 -20 10 0 19 40 13 58 -2 7
-12 12 -22 12 -10 0 -31 5 -47 11 l-28 11 28 10 c40 14 33 28 -15 30 -38 1
-39 2 -10 5 28 4 31 7 21 19 -9 11 -7 14 15 14 20 0 26 5 27 23 0 21 1 21 9 2
7 -17 9 -14 9 13 1 30 0 32 -15 18 -8 -9 -25 -16 -37 -15 -21 1 -20 1 2 8 43
12 33 27 -26 41 -32 7 -71 16 -88 20 l-30 8 30 1 c36 1 155 -16 179 -25 11 -4
16 -1 16 10 0 10 -6 13 -15 10 -9 -4 -15 0 -15 9 0 21 17 31 24 15 3 -7 4 -1
1 15 -3 15 -2 27 2 27 5 0 8 12 9 28 0 15 4 36 9 46 6 14 5 17 -3 12 -6 -4
-14 -22 -18 -41 -7 -38 -34 -70 -34 -41 0 9 5 16 10 16 6 0 10 9 10 20 0 27
21 70 31 64 5 -3 9 0 9 7 0 9 3 9 14 0 8 -7 25 -9 39 -6z m-103 -25 c0 -5 -4
-10 -10 -10 -5 0 -10 5 -10 10 0 6 5 10 10 10 6 0 10 -4 10 -10z m1326 -202
c65 -132 72 -151 68 -193 -4 -36 1 -55 17 -82 13 -21 18 -38 12 -44 -14 -14
-195 -89 -215 -89 -16 0 -18 10 -18 103 0 56 11 185 25 287 28 215 25 199 32
180 3 -8 39 -81 79 -162z m-726 128 c0 -3 -4 -8 -10 -11 -5 -3 -10 -1 -10 4 0
6 5 11 10 11 6 0 10 -2 10 -4z m-1087 -33 c-7 -2 -19 -2 -25 0 -7 3 -2 5 12 5
14 0 19 -2 13 -5z m477 -24 c0 -28 -15 -23 -16 6 -1 14 2 22 7 19 5 -3 9 -14
9 -25z m-535 11 c-3 -5 -15 -10 -26 -10 -11 0 -17 5 -14 10 3 6 15 10 26 10
11 0 17 -4 14 -10z m-408 -32 c-3 -7 -5 -2 -5 12 0 14 2 19 5 13 2 -7 2 -19 0
-25z m339 23 c-6 -9 -185 -36 -192 -29 -3 4 124 28 189 37 5 1 6 -3 3 -8z
m1166 -31 c-2 -8 3 -10 13 -6 9 3 31 -2 48 -11 18 -9 35 -16 39 -15 4 1 10 -7
13 -18 4 -11 13 -20 21 -20 8 0 12 5 9 10 -3 6 6 5 20 -2 15 -7 23 -14 17 -16
-6 -2 9 -21 32 -43 42 -38 64 -51 50 -27 -4 7 -3 8 5 4 6 -4 9 -12 6 -17 -4
-5 0 -9 8 -9 16 0 70 -54 61 -62 -3 -3 3 -5 13 -4 11 0 18 -5 17 -16 -1 -10 2
-16 6 -13 7 4 51 -41 45 -47 -10 -10 -15 -157 -6 -163 8 -4 11 20 11 77 l1 83
30 -35 c16 -19 33 -39 37 -45 85 -112 97 -135 129 -234 49 -155 50 -163 63
-321 6 -80 13 -158 15 -175 2 -16 7 -61 10 -100 4 -38 13 -110 21 -160 14 -91
17 -131 7 -107 -2 6 -11 12 -19 12 -8 0 -11 6 -8 15 4 8 2 15 -3 15 -6 0 -21
9 -34 21 -13 12 -31 26 -41 33 -10 7 -17 27 -18 51 -3 57 -3 57 30 40 41 -21
38 -12 -4 14 -33 21 -34 24 -41 101 -4 44 -11 83 -17 86 -5 4 -6 -24 -2 -71 5
-50 3 -76 -3 -74 -5 2 -44 22 -86 44 l-77 40 -1 115 c-2 98 -3 107 -9 60 -5
-30 -8 -79 -9 -107 -1 -29 -3 -53 -6 -53 -3 0 -21 7 -40 14 -25 11 -33 19 -29
30 3 9 1 16 -5 16 -6 0 -11 18 -12 43 0 35 -2 38 -9 20 -5 -13 -17 -22 -27
-22 -17 1 -17 2 0 6 12 3 17 15 17 42 0 45 -9 57 -25 34 -11 -15 -13 -15 -24
5 -6 12 -18 22 -26 22 -8 0 -16 8 -17 18 -4 48 -13 -150 -10 -243 3 -88 6
-106 18 -101 8 3 14 3 14 0 0 -2 -10 -8 -22 -13 -23 -8 -22 -9 9 -27 18 -11
33 -22 33 -26 0 -12 -28 -10 -35 2 -15 24 -20 4 -18 -78 0 -48 -1 -102 -4
-120 -10 -65 -20 -10 -19 106 l1 117 -55 26 c-30 14 -89 39 -130 54 -76 29
-105 45 -81 45 20 0 159 -50 211 -76 26 -13 50 -24 51 -24 4 0 4 218 -1 323
-1 37 -7 70 -11 73 -5 3 -9 0 -9 -6 0 -6 -4 -8 -10 -5 -15 9 -12 25 4 25 8 0
18 5 22 12 4 7 3 8 -4 4 -7 -4 -12 -3 -12 3 0 5 5 13 10 16 13 8 13 42 1 50
-6 3 -8 -5 -6 -17 4 -19 0 -23 -25 -25 -23 -2 -30 2 -30 15 0 10 5 23 11 29 6
6 8 16 5 22 -9 14 -46 14 -46 1 0 -5 -5 -10 -11 -10 -6 0 -8 9 -4 21 6 19 4
21 -18 15 -14 -3 -29 -1 -32 4 -4 6 -11 8 -16 5 -5 -4 -9 4 -9 16 l0 22 -21
-24 c-19 -21 -21 -22 -16 -4 3 11 9 67 13 125 4 58 9 108 10 113 1 4 2 27 3
52 0 25 4 45 9 45 4 0 52 -29 107 -65 61 -40 102 -60 104 -53 2 7 -1 14 -7 16
-6 2 -30 18 -54 36 -24 18 -66 47 -95 65 l-51 33 -1 158 c-2 165 4 214 23 207
6 -3 10 -10 8 -17z m-658 -36 c3 -8 2 -12 -4 -9 -6 3 -10 10 -10 16 0 14 7 11
14 -7z m69 -1 c-7 -2 -21 -2 -30 0 -10 3 -4 5 12 5 17 0 24 -2 18 -5z m7 -43
c0 -5 -12 -10 -27 -9 -25 0 -26 1 -8 9 27 12 35 12 35 0z m-103 -126 c-3 -3
-12 -4 -19 -1 -8 3 -5 6 6 6 11 1 17 -2 13 -5z m-2527 -58 c0 -3 -4 -8 -10
-11 -5 -3 -10 -1 -10 4 0 6 5 11 10 11 6 0 10 -2 10 -4z m2643 -56 c-3 -11 -7
-20 -9 -20 -2 0 -4 9 -4 20 0 11 4 20 9 20 5 0 7 -9 4 -20z m-953 -27 c-5 -21
-11 -53 -15 -70 l-7 -33 78 -1 c44 -1 90 -5 104 -9 16 -6 -12 -8 -78 -6 -65 2
-105 -1 -111 -8 -5 -6 -28 -59 -51 -118 -24 -60 -47 -108 -52 -108 -6 0 -8 6
-5 13 38 82 86 211 82 217 -2 4 -17 6 -32 5 -16 -2 -68 -5 -118 -8 -79 -4 -82
-4 -30 4 33 5 90 11 127 15 l67 5 18 70 c18 72 36 96 23 32z m3030 27 c0 -5
-2 -10 -4 -10 -3 0 -8 5 -11 10 -3 6 -1 10 4 10 6 0 11 -4 11 -10z m-2453 -22
c-3 -8 -6 -5 -6 6 -1 11 2 17 5 13 3 -3 4 -12 1 -19z m343 11 c0 -3 -13 -9
-30 -11 -19 -3 -30 0 -30 7 0 6 14 12 30 12 17 0 30 -4 30 -8z m-413 -105 c13
-4 21 -10 18 -14 -6 -10 -51 -3 -74 10 -13 8 -11 9 9 10 14 0 35 -3 47 -6z
m416 -1 c-7 -2 -19 -2 -25 0 -7 3 -2 5 12 5 14 0 19 -2 13 -5z m110 -33 c12 0
29 -5 37 -10 10 -6 2 -9 -28 -7 -38 1 -42 4 -41 27 1 17 3 19 6 8 2 -10 14
-18 26 -18z m22 20 c3 -5 -3 -10 -14 -10 -12 0 -21 5 -21 10 0 6 6 10 14 10 8
0 18 -4 21 -10z m42 -16 c-3 -3 -12 -4 -19 -1 -8 3 -5 6 6 6 11 1 17 -2 13 -5z
m233 -58 c0 -11 -19 -15 -25 -6 -3 5 1 10 9 10 9 0 16 -2 16 -4z m-823 -38
c-3 -8 -6 -5 -6 6 -1 11 2 17 5 13 3 -3 4 -12 1 -19z m-100 -114 c-3 -3 -12
-4 -19 -1 -8 3 -5 6 6 6 11 1 17 -2 13 -5z m141 -59 c-3 -3 -9 2 -12 12 -6 14
-5 15 5 6 7 -7 10 -15 7 -18z m-703 -23 c-10 -10 -16 -12 -13 -7 3 6 8 19 13
30 5 14 9 16 12 7 3 -8 -3 -21 -12 -30z m639 5 c-3 -9 -11 -17 -16 -17 -6 0
-7 7 -4 16 3 9 6 21 6 27 0 8 3 8 10 1 6 -6 8 -18 4 -27z m-62 -24 c2 -20 9
-29 26 -31 16 -3 22 -8 18 -18 -3 -8 -2 -12 3 -9 15 8 22 -28 26 -118 1 -45 6
-94 10 -109 9 -33 6 -34 -78 -12 -93 24 -96 26 -67 34 16 5 19 8 8 9 -11 1
-18 9 -18 21 0 12 7 20 18 20 14 0 15 -2 2 -10 -8 -5 -11 -12 -7 -16 3 -4 13
-1 22 6 13 11 13 15 0 33 -22 32 -19 36 23 31 l37 -4 -35 13 c-19 8 -35 19
-34 25 1 7 2 17 3 22 0 6 13 11 29 11 l27 2 -27 4 c-31 5 -37 18 -12 27 11 4
13 10 6 19 -11 14 -4 77 8 77 5 0 10 -12 12 -27z m-625 -10 c-13 -43 -47 -169
-47 -175 0 -3 50 -7 112 -7 61 -1 114 -3 116 -6 3 -3 -49 -5 -116 -5 l-120 0
-17 -50 c-9 -27 -20 -52 -25 -55 -8 -5 -1 36 14 82 6 19 3 22 -26 26 l-33 4
37 1 c36 2 36 3 57 71 12 38 21 71 21 74 0 3 4 17 10 31 11 29 25 36 17 9z
m693 -3 c0 -5 -2 -10 -4 -10 -3 0 -8 5 -11 10 -3 6 -1 10 4 10 6 0 11 -4 11
-10z m47 -29 c-4 -16 -2 -31 3 -33 6 -2 11 -22 12 -45 1 -24 6 -43 12 -43 37
-1 286 -41 310 -50 16 -6 35 -9 43 -6 7 3 13 2 13 -2 0 -5 10 -13 23 -18 27
-12 23 -12 -88 14 -49 11 -136 26 -192 33 -90 11 -103 10 -117 -4 -11 -11 -13
-18 -5 -23 8 -4 7 -9 -2 -15 -10 -6 -11 -9 -1 -9 7 0 12 -15 12 -40 0 -27 -4
-40 -14 -40 -9 0 -15 20 -19 68 -2 37 -8 75 -12 85 -5 12 -2 17 11 18 13 0 14
2 5 6 -11 5 -11 7 0 14 10 6 11 9 2 9 -14 0 -18 65 -7 94 10 26 17 18 11 -13z
m-1410 -103 c-3 -8 -6 -5 -6 6 -1 11 2 17 5 13 3 -3 4 -12 1 -19z m-6 -41
c-11 -29 -17 -109 -9 -122 6 -11 23 -139 22 -167 0 -10 6 -18 14 -18 9 0 12
-3 8 -7 -10 -10 -146 -20 -140 -11 2 3 0 8 -5 10 -10 3 -15 89 -8 146 3 22 0
32 -10 32 -7 0 -12 -3 -12 -7 1 -5 1 -15 0 -23 -1 -13 -4 -13 -14 1 -9 12 -25
16 -58 14 -25 -2 -52 1 -60 6 -10 6 -4 9 21 9 19 0 58 3 86 6 46 6 52 9 67 43
10 24 16 29 16 17 1 -20 1 -20 16 0 14 18 14 18 16 -6 1 -18 5 -10 16 25 21
75 22 75 32 75 7 0 7 -8 2 -23z m3819 19 c0 -3 -4 -8 -10 -11 -5 -3 -10 -1
-10 4 0 6 5 11 10 11 6 0 10 -2 10 -4z m-4715 -76 c3 -5 1 -10 -4 -10 -6 0
-11 5 -11 10 0 6 2 10 4 10 3 0 8 -4 11 -10z m792 -22 c-3 -8 -6 -5 -6 6 -1
11 2 17 5 13 3 -3 4 -12 1 -19z m353 14 c0 -4 -10 -9 -22 -9 -18 -2 -20 0 -8
7 18 12 30 13 30 2z m3330 -12 c0 -5 -4 -10 -10 -10 -5 0 -10 5 -10 10 0 6 5
10 10 10 6 0 10 -4 10 -10z m-3443 -16 c-3 -3 -12 -4 -19 -1 -8 3 -5 6 6 6 11
1 17 -2 13 -5z m1186 -51 l60 -16 -7 -66 c-3 -36 -12 -103 -19 -149 -12 -73
-8 -106 10 -89 9 10 49 271 44 290 -1 5 4 7 11 4 10 -3 13 -41 11 -158 l-1
-154 169 -80 168 -80 -1 -70 -2 -70 -3 65 -4 66 -157 71 c-86 39 -160 69 -164
66 -5 -2 -8 -37 -8 -78 0 -41 -4 -76 -10 -80 -5 -3 -7 -12 -3 -20 3 -9 0 -22
-7 -30 -7 -8 -10 -24 -7 -35 5 -20 -7 -28 -17 -12 -3 5 -8 37 -11 73 -4 35
-10 87 -15 114 -4 28 -6 62 -3 78 8 41 -13 32 -24 -11 -10 -37 -7 -66 5 -58 4
2 8 -34 8 -80 1 -46 -1 -84 -5 -84 -15 0 -128 78 -133 91 -9 29 -1 141 12 149
9 6 8 10 -6 19 -18 10 -18 10 1 11 16 1 15 4 -9 17 l-30 16 30 12 c21 10 24
14 10 14 -15 1 -16 4 -7 15 8 9 8 16 2 20 -10 7 -8 72 3 83 3 3 6 18 6 32 0
15 7 36 14 47 15 21 11 64 -6 64 -5 0 -6 -4 -3 -10 3 -5 2 -10 -3 -10 -5 0
-12 9 -15 20 -4 17 0 20 26 20 17 0 57 -8 90 -17z m922 -57 c19 -8 35 -17 35
-20 0 -5 -102 23 -109 30 -11 10 43 2 74 -10z m525 -7 l32 -12 -3 -108 c-3
-67 0 -110 6 -111 6 -2 11 37 13 100 3 121 2 120 107 63 l69 -38 -3 -44 c-1
-24 -6 -46 -11 -49 -6 -4 -7 -31 -1 -62 0 -4 10 -9 20 -13 13 -4 18 -12 14
-22 -5 -12 -3 -14 8 -8 12 7 12 6 1 -7 -10 -13 -10 -17 3 -22 19 -7 61 -76 57
-94 -2 -8 1 -11 7 -8 13 8 54 -51 45 -65 -5 -8 -3 -9 6 -4 10 6 12 3 8 -12 -4
-14 -1 -20 10 -19 9 0 29 -19 46 -44 16 -25 37 -52 46 -60 9 -8 27 -30 40 -49
l23 -34 -24 16 c-13 8 -53 21 -87 28 -61 11 -71 18 -76 53 -3 23 -16 32 -16
12 0 -9 -4 -15 -8 -12 -5 3 -10 31 -11 63 -2 52 -13 118 -27 166 -10 31 -26
19 -19 -14 13 -59 22 -194 13 -200 -5 -3 -5 -14 -2 -24 6 -15 4 -17 -10 -12
-10 4 -22 7 -27 7 -5 0 -9 14 -9 30 0 17 -5 30 -11 30 -6 0 -9 -6 -6 -13 3 -8
2 -19 -3 -26 -5 -9 -22 -3 -63 23 l-55 35 5 81 c4 54 1 95 -7 123 -23 74 -33
67 -26 -16 8 -86 0 -167 -16 -167 -6 0 -8 6 -5 14 4 10 0 12 -15 8 -16 -4 -19
-2 -13 8 5 9 4 11 -4 6 -13 -9 -43 12 -36 24 3 5 -5 6 -17 3 -13 -3 -20 -2
-16 2 5 5 -2 13 -14 19 -22 12 -33 49 -22 76 4 8 6 29 5 45 -1 21 1 26 7 16
12 -17 24 1 16 24 -5 13 -8 14 -15 3 -6 -8 -9 -1 -9 22 0 28 3 32 11 20 12
-16 12 -18 -5 38 -5 14 -3 22 4 22 6 0 9 4 6 9 -11 18 6 41 30 41 13 0 24 5
24 10 0 6 -9 10 -19 10 -10 0 -21 7 -25 15 -4 12 3 15 29 15 19 0 35 5 35 10
0 6 -7 10 -15 10 -8 0 -15 7 -15 15 0 8 -6 15 -14 15 -19 0 -27 25 -13 39 13
13 7 13 47 0z m-2900 -50 c0 -11 -4 -17 -10 -14 -5 3 -10 13 -10 21 0 8 5 14
10 14 6 0 10 -9 10 -21z m2860 -19 c0 -5 -2 -10 -4 -10 -3 0 -8 5 -11 10 -3 6
-1 10 4 10 6 0 11 -4 11 -10z m-2209 -42 c-5 -13 -21 -50 -36 -82 -26 -57 -26
-60 -9 -73 16 -12 16 -13 -9 -13 -15 0 -27 -4 -27 -10 0 -5 -4 -10 -10 -10 -5
0 -10 7 -10 17 0 15 -17 16 -185 10 -174 -5 -187 -7 -215 -29 -16 -13 -29 -27
-29 -32 -1 -5 -12 -24 -26 -41 -19 -25 -30 -31 -50 -28 -17 4 -25 12 -25 27
-1 20 -1 20 -14 3 -13 -16 -14 -16 -18 8 -4 17 0 29 11 35 13 8 11 9 -8 6 -14
-1 -27 -8 -29 -14 -6 -18 -22 -14 -22 6 1 9 16 53 34 96 l33 79 56 2 c30 2 74
6 97 10 37 6 42 5 37 -9 -4 -9 -1 -16 6 -16 7 0 4 -7 -6 -14 -12 -9 -14 -16
-8 -21 6 -3 11 -2 11 3 0 6 7 12 15 16 13 4 13 2 5 -14 -6 -10 -9 -25 -8 -32
2 -7 -2 -12 -9 -11 -7 2 -10 -4 -7 -12 5 -11 13 -13 33 -7 14 4 96 6 181 5
l155 -1 39 84 c21 46 42 84 47 84 5 0 5 -10 0 -22z m1246 -105 c-2 -21 -4 -6
-4 32 0 39 2 55 4 38 2 -18 2 -50 0 -70z m1250 -45 c-3 -7 -5 -2 -5 12 0 14 2
19 5 13 2 -7 2 -19 0 -25z m-2927 -38 c0 -5 -4 -10 -10 -10 -5 0 -10 -9 -10
-21 0 -16 -4 -19 -22 -14 -19 6 -21 5 -10 -6 17 -18 15 -32 -3 -25 -9 3 -19
-3 -25 -14 -6 -11 -15 -20 -21 -20 -14 0 2 26 46 78 36 41 55 52 55 32z m1680
-9 c0 -6 -4 -13 -10 -16 -5 -3 -10 1 -10 9 0 9 5 16 10 16 6 0 10 -4 10 -9z
m-13 -53 c-3 -8 -6 -5 -6 6 -1 11 2 17 5 13 3 -3 4 -12 1 -19z m683 2 c0 -5
-7 -7 -15 -4 -8 4 -15 8 -15 10 0 2 7 4 15 4 8 0 15 -4 15 -10z m658 -25 c-3
-3 -9 2 -12 12 -6 14 -5 15 5 6 7 -7 10 -15 7 -18z m-644 -24 c4 -5 -3 -7 -14
-4 -23 6 -26 13 -6 13 8 0 17 -4 20 -9z m136 -23 c0 -19 -16 -5 -17 14 -2 18
0 20 7 8 5 -8 10 -18 10 -22z m-3049 -19 c-35 -16 -66 -27 -69 -24 -6 6 98 54
118 54 8 0 -14 -13 -49 -30z m822 -36 c-4 -10 -13 -28 -21 -40 -15 -24 -62
-187 -62 -215 0 -16 11 -18 88 -19 48 0 96 -4 107 -9 12 -5 -24 -8 -94 -7
l-114 2 -23 -75 c-24 -80 -32 -68 -10 15 8 28 11 53 7 56 -3 3 -53 2 -110 -3
-93 -8 -123 -6 -110 6 2 2 55 8 118 13 110 8 115 9 122 33 4 14 19 63 33 110
14 47 35 100 46 118 21 35 33 42 23 15z m-928 -10 c-39 -21 -260 -99 -305
-107 -54 -10 -18 8 85 43 50 17 119 41 155 55 74 28 109 33 65 9z m3039 1 c3
-8 2 -12 -4 -9 -6 3 -10 10 -10 16 0 14 7 11 14 -7z m-117 -16 c-3 -8 -6 -5
-6 6 -1 11 2 17 5 13 3 -3 4 -12 1 -19z m411 -18 l62 -40 -5 -157 c-3 -87 -8
-175 -10 -195 -3 -21 -2 -38 3 -38 13 0 33 -119 31 -178 -2 -44 -5 -52 -18
-46 -9 4 -30 12 -48 18 -20 6 -34 19 -38 33 -6 25 -24 30 -43 11 -16 -16 -15
1 2 34 12 23 12 29 0 39 -15 12 -17 7 -14 -28 1 -13 -3 -23 -9 -23 -17 0 -8
159 10 171 12 8 11 11 -3 20 -13 7 -18 23 -18 54 0 26 -5 45 -12 48 -7 2 2 4
20 3 22 -1 31 -5 27 -14 -3 -8 -8 -26 -11 -40 -4 -21 -3 -24 5 -12 6 8 11 23
11 33 0 9 5 17 11 17 8 0 8 5 -1 15 -7 8 -21 15 -31 15 -11 0 -19 5 -19 10 0
12 -67 46 -75 39 -2 -3 -7 -144 -10 -315 -4 -170 -8 -315 -11 -323 -3 -9 1
-11 13 -6 38 16 50 16 56 2 7 -18 -52 -144 -116 -250 -24 -40 -55 -92 -69
-117 -14 -25 -68 -119 -120 -210 -61 -106 -91 -168 -84 -172 7 -5 5 -8 -5 -8
-9 0 -29 -20 -45 -45 -15 -25 -31 -45 -35 -45 -22 0 107 253 221 435 120 193
171 289 168 318 -3 29 -3 29 -75 -44 -40 -41 -83 -87 -97 -104 -13 -16 -33
-41 -45 -55 -11 -14 -20 -20 -21 -14 0 17 106 153 176 224 35 36 64 70 64 76
0 14 -115 24 -262 24 -69 0 -108 4 -108 11 0 10 349 3 360 -8 3 -2 10 134 16
304 7 169 13 314 15 321 5 15 -63 44 -158 68 -69 18 -113 49 -52 37 19 -3 63
-17 99 -31 84 -31 101 -34 118 -20 11 10 13 8 10 -8 -2 -14 4 -20 20 -22 13
-2 46 -17 73 -33 28 -16 53 -29 57 -29 4 0 -1 5 -12 11 -15 9 -16 13 -5 21 10
7 9 8 -6 4 -11 -3 -24 -2 -30 2 -14 10 -18 42 -5 42 5 0 10 10 9 23 0 20 -1
20 -8 3 -5 -12 -10 -16 -14 -9 -4 6 -2 24 3 39 7 17 7 30 1 33 -13 8 -1 62 15
68 8 3 14 9 14 15 0 5 -5 6 -12 2 -7 -5 -8 -3 -3 6 4 7 2 16 -6 21 -12 7 -11
9 1 9 8 0 43 -18 78 -40z m-1528 22 c0 -5 18 -18 40 -31 22 -12 38 -26 35 -31
-3 -4 2 -13 10 -20 8 -7 15 -9 15 -4 0 5 7 -4 15 -20 8 -15 15 -36 15 -45 0
-9 -8 -1 -17 17 -8 18 -18 31 -20 28 -3 -2 1 -14 7 -26 6 -12 9 -24 6 -28 -3
-3 -6 0 -6 6 0 7 -12 12 -27 12 -39 1 -62 20 -53 45 6 16 1 23 -21 32 -27 11
-41 43 -19 43 6 0 10 -4 10 -10 0 -5 5 -10 12 -10 6 0 4 7 -5 18 -19 21 -22
32 -7 32 6 0 10 -4 10 -8z m-4 -97 c1 -14 -2 -25 -7 -25 -5 0 -9 11 -9 25 0
33 15 33 16 0z m998 10 c32 -8 61 -13 65 -11 4 3 13 -5 20 -16 11 -17 11 -20
-1 -16 -7 3 -47 15 -88 27 -99 30 -98 29 -75 30 12 1 47 -6 79 -14z m-457 -57
c-2 -13 -4 -5 -4 17 -1 22 1 32 4 23 2 -10 2 -28 0 -40z m1133 31 c0 -5 8 -9
18 -9 27 0 43 -20 32 -40 -12 -22 -10 -90 2 -90 4 0 6 17 3 38 -3 20 -2 43 4
51 18 27 31 -1 32 -67 1 -37 4 -91 7 -120 7 -52 9 -55 45 -67 48 -16 62 -30
22 -21 -71 16 -113 16 -119 1 -3 -8 -1 -15 3 -15 5 0 11 4 13 10 2 5 14 7 27
3 24 -6 24 -6 3 -14 -26 -10 -30 -37 -4 -35 13 1 17 -7 19 -36 0 -21 -3 -38
-8 -38 -5 0 -9 9 -9 19 0 11 -4 23 -10 26 -6 3 -10 -4 -10 -17 -1 -21 -1 -22
-11 -5 -6 11 -9 32 -7 48 3 19 0 29 -8 29 -8 0 -13 -11 -12 -27 1 -16 -2 -43
-6 -61 -4 -18 -4 -32 1 -31 40 7 101 -30 87 -53 -5 -7 -11 -5 -19 5 -8 12 -27
17 -59 17 -41 0 -46 3 -47 23 -1 16 -2 18 -6 5 -2 -10 -9 -18 -15 -18 -6 0 -8
11 -4 26 4 14 3 31 -2 37 -16 21 -32 105 -32 169 0 64 16 230 26 259 5 17 44
15 44 -2z m-3236 -59 c-16 -61 -33 -139 -39 -184 -2 -16 -9 -34 -16 -40 -9 -8
-10 -4 -4 19 4 17 9 41 12 55 5 30 42 180 49 199 2 8 6 12 8 10 3 -2 -2 -29
-10 -59z m1600 -6 c3 -8 2 -12 -4 -9 -6 3 -10 10 -10 16 0 14 7 11 14 -7z
m1775 4 c-3 -24 1 -39 9 -35 4 3 8 -15 10 -38 1 -24 -2 -47 -8 -50 -6 -4 -10
6 -11 22 0 25 -1 26 -9 8 l-9 -20 -1 20 c-1 11 -3 39 -6 63 -4 34 -2 42 11 42
9 0 15 -6 14 -12z m-1692 -20 c-3 -8 -6 -5 -6 6 -1 11 2 17 5 13 3 -3 4 -12 1
-19z m13 -34 c0 -8 -19 -13 -24 -6 -3 5 1 9 9 9 8 0 15 -2 15 -3z m-2333 -56
c-3 -8 -6 -5 -6 6 -1 11 2 17 5 13 3 -3 4 -12 1 -19z m1782 -42 c-9 -8 -10 -7
-5 7 3 10 7 24 7 30 1 7 3 4 6 -7 3 -10 -1 -23 -8 -30z m-1792 2 c-3 -8 -6 -5
-6 6 -1 11 2 17 5 13 3 -3 4 -12 1 -19z m4030 -8 c1 -11 -2 -20 -8 -20 -5 0
-9 9 -9 20 0 11 4 20 8 20 4 0 8 -9 9 -20z m-2231 -39 c-3 -4 -20 -5 -38 -2
l-33 5 30 6 c32 7 48 3 41 -9z m557 -25 c29 -13 59 -32 67 -42 17 -20 17 -20
-67 21 -34 17 -62 33 -63 38 0 11 7 9 63 -17z m-2394 -85 c-12 -50 -27 -91
-32 -91 -5 0 -7 7 -4 15 4 8 16 50 28 95 12 44 24 78 26 76 2 -2 -6 -44 -18
-95z m601 89 c-8 -5 -22 -9 -30 -9 -10 0 -8 3 5 9 27 12 43 12 25 0z m3483 -4
c4 -10 1 -13 -8 -9 -8 3 -12 9 -9 14 7 12 11 11 17 -5z m-3553 -26 c-8 -5 -22
-10 -30 -10 -13 0 -13 1 0 10 8 5 22 10 30 10 13 0 13 -1 0 -10z m85 -70 l-15
-65 6 59 c6 61 15 97 21 80 1 -5 -4 -38 -12 -74z m1202 33 c-3 -10 -5 -4 -5
12 0 17 2 24 5 18 2 -7 2 -21 0 -30z m-1342 18 c-16 -15 -156 -60 -153 -49 2
5 7 10 10 10 4 0 36 10 70 23 70 26 87 30 73 16z m2160 -90 c44 -25 82 -48 85
-51 10 -11 54 -40 62 -40 5 0 8 10 9 23 1 17 3 15 8 -9 10 -38 20 -56 30 -50
4 3 20 -6 37 -19 16 -13 24 -24 18 -25 -6 0 -17 7 -24 15 -7 8 -18 15 -24 15
-7 0 -21 7 -31 15 -43 33 -226 145 -292 179 -18 9 -33 21 -33 27 0 6 17 1 38
-11 20 -12 73 -43 117 -69z m-2330 30 c-8 -7 -231 -80 -321 -106 -12 -3 -26
-15 -32 -28 -9 -19 -11 -19 -11 -4 -1 19 -6 19 -88 0 -13 -3 -23 -1 -23 5 0 5
21 15 48 21 26 7 70 18 97 26 28 9 93 27 145 41 52 14 113 32 135 40 48 16 63
17 50 5z m1497 -53 c-8 -8 -9 -4 -5 13 4 13 8 18 11 10 2 -7 -1 -18 -6 -23z
m-5 -40 c-3 -8 -6 -5 -6 6 -1 11 2 17 5 13 3 -3 4 -12 1 -19z m1895 -50 c16
-7 28 -19 28 -25 0 -7 5 -13 11 -13 8 0 8 -4 0 -13 -8 -11 -3 -14 28 -13 22 0
37 4 35 8 -3 4 -11 5 -18 2 -7 -3 -16 2 -19 10 -8 20 -6 20 43 -5 39 -20 55
-37 25 -25 -12 4 -15 -4 -16 -37 -1 -37 -2 -39 -8 -12 -5 25 -11 29 -45 32
-47 3 -49 5 -49 43 0 17 -4 30 -10 30 -5 0 -21 10 -35 22 -27 21 -20 21 30 -4z
m216 -15 c1 -34 0 -36 -9 -14 -8 21 -6 51 4 51 1 0 4 -17 5 -37z m22 -13 c0
-22 -3 -40 -8 -40 -4 0 -6 18 -4 40 2 22 6 40 8 40 2 0 4 -18 4 -40z m-2144
-2 c-18 -90 -39 -168 -44 -164 -4 5 19 128 34 174 6 21 15 13 10 -10z m2224
12 c0 -13 -11 -13 -30 0 -12 8 -11 10 8 10 12 0 22 -4 22 -10z m38 -17 c-3
-30 -28 -45 -28 -16 0 15 2 16 11 3 8 -12 10 -9 6 13 -2 15 0 27 5 27 5 0 8
-12 6 -27z m239 5 c-3 -8 -6 -5 -6 6 -1 11 2 17 5 13 3 -3 4 -12 1 -19z m30 0
c-3 -8 -6 -5 -6 6 -1 11 2 17 5 13 3 -3 4 -12 1 -19z m-4393 -60 c-34 -102
-34 -101 -40 -95 -8 7 46 167 56 167 5 0 -3 -33 -16 -72z m2889 -1 c3 -34 2
-55 -4 -52 -5 4 -9 31 -9 62 0 70 5 66 13 -10z m1146 21 c1 14 31 17 31 3 0
-12 -29 -23 -41 -15 -5 3 -9 15 -8 27 1 20 2 20 9 -3 4 -14 8 -19 9 -12z
m-264 -17 c-3 -6 -14 -11 -23 -11 -15 1 -15 2 2 15 21 16 32 13 21 -4z m-2548
-43 c-3 -7 -5 -2 -5 12 0 14 2 19 5 13 2 -7 2 -19 0 -25z m2878 22 c-3 -5 -11
-10 -16 -10 -6 0 -7 5 -4 10 3 6 11 10 16 10 6 0 7 -4 4 -10z m-289 -31 c-49
-24 -55 -24 -49 -1 3 13 15 18 46 19 l42 2 -39 -20z m111 -11 c-3 -7 -5 -2 -5
12 0 14 2 19 5 13 2 -7 2 -19 0 -25z m-2495 -8 c-6 -41 7 -73 28 -67 11 3 20
1 20 -4 0 -5 -5 -9 -11 -9 -6 0 -8 -7 -5 -16 6 -16 -10 -38 -35 -47 -8 -2 -1
-3 14 -1 15 2 25 0 22 -5 -3 -5 -1 -12 5 -16 5 -3 10 -11 10 -17 0 -6 -6 -6
-15 2 -9 7 -18 10 -22 6 -3 -3 -2 -6 3 -6 15 0 11 -119 -4 -125 -13 -5 -15
-34 -13 -169 1 -59 -7 -75 -11 -23 -4 42 -17 32 -20 -15 -2 -29 -7 -42 -16
-40 -8 1 -11 -2 -7 -8 5 -8 12 -7 23 2 13 11 15 11 9 -4 -3 -9 1 -22 9 -28 8
-7 14 -17 14 -22 0 -5 -29 11 -64 36 -78 55 -95 58 -87 12 1 -5 -5 -6 -14 -2
-9 3 -24 6 -34 6 -14 0 -17 6 -13 30 2 17 9 27 15 23 5 -3 8 -2 4 3 -11 18 39
167 54 158 14 -8 11 30 -3 45 -11 10 -10 15 3 24 9 7 14 18 11 25 -2 7 2 20
10 29 9 12 9 15 1 9 -7 -4 -13 -2 -13 3 0 6 5 11 10 11 6 0 10 7 10 15 0 18
16 20 23 3 4 -8 6 -7 6 3 1 10 -9 19 -24 23 -14 4 -25 13 -25 21 0 9 6 12 15
9 10 -4 15 0 15 11 0 11 5 15 16 11 8 -3 22 1 30 9 9 8 11 15 5 15 -16 0 -14
25 3 39 7 6 16 25 20 42 7 35 33 35 28 -1z m2643 10 c3 -5 2 -10 -4 -10 -5 0
-13 5 -16 10 -3 6 -2 10 4 10 5 0 13 -4 16 -10z m-2865 -67 c-6 -32 -18 -76
-26 -98 l-14 -40 4 35 c5 48 38 172 43 166 3 -2 -1 -31 -7 -63z m2680 47 c0
-5 -2 -10 -4 -10 -3 0 -8 5 -11 10 -3 6 -1 10 4 10 6 0 11 -4 11 -10z m157 2
c9 -5 6 -12 -10 -21 -20 -13 -21 -13 -9 1 10 13 10 17 0 21 -7 3 -8 6 -3 6 6
0 15 -3 22 -7z m-2657 -11 c0 -5 -9 -11 -20 -14 -13 -3 -20 0 -20 9 0 8 9 14
20 14 11 0 20 -4 20 -9z m1510 -68 c0 -83 -6 -79 -15 11 -5 49 -4 67 4 62 6
-4 11 -35 11 -73z m885 67 c3 -5 1 -10 -4 -10 -6 0 -11 5 -11 10 0 6 2 10 4
10 3 0 8 -4 11 -10z m96 -25 c5 4 9 1 9 -4 0 -13 -10 -14 -29 -2 -8 6 -10 14
-5 22 7 11 9 10 12 -4 2 -9 8 -15 13 -12z m-3911 0 c0 -2 -8 -26 -18 -52 -11
-26 -22 -57 -26 -67 -3 -10 -9 -17 -11 -14 -7 7 37 138 46 138 5 0 9 -2 9 -5z
m30 -24 c0 -6 -4 -13 -10 -16 -5 -3 -10 1 -10 9 0 9 5 16 10 16 6 0 10 -4 10
-9z m1355 -12 c-10 -15 -25 -10 -19 6 4 8 10 12 15 9 5 -3 7 -10 4 -15z m2665
17 c0 -2 -7 -6 -15 -10 -8 -3 -15 -1 -15 4 0 6 7 10 15 10 8 0 15 -2 15 -4z
m-91 -33 c0 -16 -3 -22 -6 -15 -2 6 -11 12 -19 12 -8 0 -14 4 -14 10 0 5 7 7
15 4 8 -4 15 -1 15 5 0 6 2 11 5 11 3 0 5 -12 4 -27z m71 -2 c0 -5 -7 -12 -16
-15 -14 -5 -15 -4 -4 9 14 17 20 19 20 6z m-2850 -35 c0 -5 -99 -38 -197 -66
-35 -10 -63 -15 -63 -10 0 9 167 64 220 73 14 2 28 5 33 6 4 0 7 -1 7 -3z
m1751 -133 c0 -54 2 -136 3 -182 l3 -84 49 -44 c50 -46 44 -48 -13 -5 -23 17
-33 20 -33 11 0 -8 -2 -134 -3 -281 -1 -148 -5 -268 -9 -268 -5 0 -8 130 -8
289 l0 290 -89 59 c-49 33 -99 63 -110 67 -12 3 -21 11 -21 16 0 5 -6 9 -13 9
-16 0 -86 59 -71 60 6 0 28 -11 48 -25 20 -14 39 -25 41 -25 3 0 47 -28 98
-63 50 -35 98 -67 105 -71 10 -6 12 26 10 168 -2 97 0 176 5 176 4 0 7 -44 8
-97z m876 45 c-3 -7 -5 -2 -5 12 0 14 2 19 5 13 2 -7 2 -19 0 -25z m-3872 0
c-4 -13 -20 -56 -36 -96 -16 -41 -29 -76 -29 -78 0 -3 27 -2 61 1 42 5 59 3
54 -4 -3 -6 -31 -11 -61 -11 l-55 0 -26 -60 c-32 -73 -42 -73 -13 0 l21 53
-46 -6 c-55 -8 -52 8 3 17 49 7 54 14 82 101 24 75 37 105 46 105 3 0 2 -10
-1 -22z m2563 -32 c70 -35 102 -59 102 -77 0 -5 -24 6 -52 24 -29 18 -65 39
-80 46 -16 8 -28 18 -28 23 0 5 -4 7 -8 4 -4 -2 -19 4 -32 15 l-25 19 27 -9
c14 -5 57 -26 96 -45z m1334 32 c-7 -7 -12 -8 -12 -2 0 6 3 14 7 17 3 4 9 5
12 2 2 -3 -1 -11 -7 -17z m628 2 c0 -5 -4 -10 -10 -10 -5 0 -10 5 -10 10 0 6
5 10 10 10 6 0 10 -4 10 -10z m-2465 -10 c18 -5 -8 -6 -62 -3 -51 2 -93 0 -93
-4 0 -5 -11 -72 -25 -149 -14 -76 -25 -153 -25 -170 0 -32 -8 -47 -20 -39 -8
5 13 145 41 262 10 45 19 86 19 90 0 4 -38 7 -85 5 -56 -2 -85 0 -85 7 0 13
287 13 335 1z m-488 -82 c-3 -7 -5 -2 -5 12 0 14 2 19 5 13 2 -7 2 -19 0 -25z
m-1562 -28 c3 -5 1 -10 -4 -10 -6 0 -11 5 -11 10 0 6 2 10 4 10 3 0 8 -4 11
-10z m2662 -102 c-3 -8 -6 -5 -6 6 -1 11 2 17 5 13 3 -3 4 -12 1 -19z m-1130
-65 c-2 -16 -4 -3 -4 27 0 30 2 43 4 28 2 -16 2 -40 0 -55z m1130 -69 c4 4 1
11 -7 16 -9 6 -10 10 -3 10 18 0 27 -20 14 -33 -8 -8 -17 -5 -34 13 l-22 24
23 -18 c12 -11 25 -16 29 -12z m-1137 -4 c0 -5 -2 -10 -4 -10 -3 0 -8 5 -11
10 -3 6 -1 10 4 10 6 0 11 -4 11 -10z m-485 -50 c3 -5 1 -10 -4 -10 -6 0 -11
5 -11 10 0 6 2 10 4 10 3 0 8 -4 11 -10z m795 -17 c0 -38 -10 -73 -21 -73 -5
0 -7 10 -5 23 3 12 5 34 5 50 1 15 6 27 11 27 6 0 10 -12 10 -27z m655 6 c-10
-15 -25 -10 -19 6 4 8 10 12 15 9 5 -3 7 -10 4 -15z m155 17 c0 -2 -7 -6 -15
-10 -8 -3 -15 -1 -15 4 0 6 7 10 15 10 8 0 15 -2 15 -4z m-1133 -42 c-3 -3
-12 -4 -19 -1 -8 3 -5 6 6 6 11 1 17 -2 13 -5z m1170 -36 c-3 -8 -6 -5 -6 6
-1 11 2 17 5 13 3 -3 4 -12 1 -19z m1938 13 c7 -12 -12 -24 -25 -16 -11 7 -4
25 10 25 5 0 11 -4 15 -9z m-2015 -35 c0 -2 -7 -7 -16 -10 -8 -3 -12 -2 -9 4
6 10 25 14 25 6z m-660 -40 c100 -4 157 -14 187 -33 19 -13 26 -12 62 7 23 11
41 16 41 12 0 -5 39 -8 87 -7 61 2 110 -3 163 -17 41 -11 84 -20 95 -21 11 -1
26 -8 34 -15 7 -7 18 -11 24 -9 6 2 22 -6 36 -17 256 -214 388 -367 487 -566
58 -118 87 -205 86 -265 0 -37 2 -45 9 -30 7 17 8 15 7 -10 -2 -57 2 -76 14
-69 6 4 8 3 5 -3 -4 -6 -2 -24 3 -42 5 -19 5 -31 -1 -31 -5 0 -9 -4 -9 -10 0
-5 7 -10 15 -10 17 0 20 -16 5 -25 -14 -9 -12 -25 3 -25 7 0 13 -8 14 -18 1
-11 -22 5 -65 46 -129 121 -301 220 -483 278 -86 27 -269 54 -368 54 -66 0
-223 -20 -316 -41 -225 -49 -474 -186 -641 -353 -130 -131 -217 -266 -289
-453 -30 -78 -45 -92 -45 -43 0 17 -4 30 -10 30 -5 0 -10 -5 -10 -11 0 -6 -7
-9 -15 -5 -13 4 -13 2 -5 -14 13 -24 13 -33 -1 -24 -8 5 -8 1 0 -14 13 -25 31
-38 31 -23 0 6 4 11 9 11 5 0 8 -8 6 -17 -2 -10 -4 -35 -4 -56 -1 -24 -5 -36
-12 -32 -5 4 -8 21 -5 38 4 22 3 26 -2 13 -11 -24 -25 -5 -15 20 4 10 0 21 -9
28 -28 20 -36 50 -28 94 4 24 10 45 13 49 4 3 -3 17 -13 31 -15 19 -17 28 -9
38 9 11 8 14 -6 14 -12 0 -15 5 -11 16 4 9 1 23 -5 30 -22 26 -32 15 -27 -31
3 -25 2 -45 -3 -45 -9 0 -13 22 -10 49 2 7 -2 11 -6 8 -5 -3 -14 9 -21 26 -11
32 -11 32 7 10 l18 -22 12 25 c14 31 14 44 1 44 -5 0 -7 -6 -4 -14 3 -8 1 -17
-4 -20 -6 -3 -13 18 -17 49 -3 30 -11 55 -16 55 -5 0 -9 6 -9 13 0 6 -8 21
-17 32 -13 16 -15 17 -10 3 4 -10 2 -18 -2 -18 -5 0 -7 -10 -5 -23 2 -12 -2
-6 -10 13 -11 30 -11 37 0 51 8 8 14 20 14 25 0 5 -7 0 -15 -10 -14 -18 -16
-16 -36 30 -11 27 -21 60 -22 74 -1 14 -7 30 -13 37 -26 28 -259 777 -247 796
3 7 2 8 -3 4 -4 -4 -16 20 -26 55 -20 69 -22 89 -10 86 15 -3 62 22 62 34 0 9
3 8 10 -2 7 -10 12 -11 18 -4 9 13 37 24 77 31 17 3 36 10 42 15 9 7 22 7 43
-2 25 -10 34 -10 52 2 16 10 49 14 113 13 55 -1 99 3 115 11 90 45 193 73 265
73 28 -1 58 -1 68 0 9 1 23 1 30 0 29 -1 83 7 95 15 8 5 18 4 24 -2 5 -5 19
-7 31 -4 20 5 20 6 1 13 -15 6 -12 8 14 8 19 1 32 -4 32 -11 0 -10 2 -10 8 -1
5 8 33 11 85 9 42 -1 77 1 77 5 0 4 17 5 38 3 20 -3 75 -7 122 -8z m777 -18
c-3 -7 -5 -2 -5 12 0 14 2 19 5 13 2 -7 2 -19 0 -25z m-1627 -32 c0 -20 -19
-31 -32 -18 -6 6 -7 15 -4 21 10 16 36 13 36 -3z m2515 -15 c35 -8 29 -9 -40
-10 -55 0 -75 2 -65 9 18 12 51 12 105 1z m360 -51 c3 -5 1 -10 -4 -10 -6 0
-11 5 -11 10 0 6 2 10 4 10 3 0 8 -4 11 -10z m532 -16 c-9 -9 -28 6 -21 18 4
6 10 6 17 -1 6 -6 8 -13 4 -17z m-642 6 c3 -5 1 -10 -4 -10 -6 0 -11 5 -11 10
0 6 2 10 4 10 3 0 8 -4 11 -10z m132 -122 c45 -30 61 -52 19 -24 -14 8 -40 24
-60 35 -57 32 -116 71 -116 76 0 7 107 -52 157 -87z m108 -18 c-17 -19 -35
-19 -35 1 0 10 42 30 49 23 2 -2 -4 -13 -14 -24z m-135 0 c0 -5 -4 -10 -10
-10 -5 0 -10 5 -10 10 0 6 5 10 10 10 6 0 10 -4 10 -10z m166 -37 c-10 -10
-19 5 -10 18 6 11 8 11 12 0 2 -7 1 -15 -2 -18z m-26 -17 c7 -9 9 -16 6 -16
-13 0 -56 32 -56 42 0 11 32 -6 50 -26z m-373 -23 c-3 -10 -5 -2 -5 17 0 19 2
27 5 18 2 -10 2 -26 0 -35z m793 12 c0 -8 -4 -15 -10 -15 -5 0 -10 7 -10 15 0
8 5 15 10 15 6 0 10 -7 10 -15z m0 -85 c0 -5 -5 -10 -11 -10 -5 0 -7 5 -4 10
3 6 8 10 11 10 2 0 4 -4 4 -10z m-369 -23 c-1 -12 -15 -9 -19 4 -3 6 1 10 8 8
6 -3 11 -8 11 -12z m-124 -33 c-9 -9 -28 6 -21 18 4 6 10 6 17 -1 6 -6 8 -13
4 -17z m-300 -6 c-3 -8 -6 -5 -6 6 -1 11 2 17 5 13 3 -3 4 -12 1 -19z m213 7
c0 -8 -4 -15 -9 -15 -13 0 -22 16 -14 24 11 11 23 6 23 -9z m634 -46 c-3 -5
-10 -7 -15 -3 -5 3 -7 10 -3 15 3 5 10 7 15 3 5 -3 7 -10 3 -15z m-694 1 c0
-5 -5 -10 -11 -10 -5 0 -7 5 -4 10 3 6 8 10 11 10 2 0 4 -4 4 -10z m40 -30 c0
-5 -4 -10 -10 -10 -5 0 -10 5 -10 10 0 6 5 10 10 10 6 0 10 -4 10 -10z m101
-43 c-13 -13 -26 -3 -16 12 3 6 11 8 17 5 6 -4 6 -10 -1 -17z m-401 3 c0 -5
-4 -10 -10 -10 -5 0 -10 5 -10 10 0 6 5 10 10 10 6 0 10 -4 10 -10z m1130
-110 c0 -5 -5 -10 -11 -10 -5 0 -7 5 -4 10 3 6 8 10 11 10 2 0 4 -4 4 -10z
m-1013 -87 c-3 -10 -5 -4 -5 12 0 17 2 24 5 18 2 -7 2 -21 0 -30z m183 21 c0
-8 -5 -12 -10 -9 -6 4 -8 11 -5 16 9 14 15 11 15 -7z m-300 -24 c0 -5 -4 -10
-10 -10 -5 0 -10 5 -10 10 0 6 5 10 10 10 6 0 10 -4 10 -10z m117 -42 c-3 -8
-6 -5 -6 6 -1 11 2 17 5 13 3 -3 4 -12 1 -19z m908 2 c3 -5 -1 -10 -10 -10 -9
0 -13 5 -10 10 3 6 8 10 10 10 2 0 7 -4 10 -10z m-668 -37 c-15 -15 -17 -15
-23 1 -8 21 16 40 30 26 7 -7 4 -16 -7 -27z m83 27 c0 -5 -2 -10 -4 -10 -3 0
-8 5 -11 10 -3 6 -1 10 4 10 6 0 11 -4 11 -10z m40 -10 c0 -5 -4 -10 -10 -10
-5 0 -10 5 -10 10 0 6 5 10 10 10 6 0 10 -4 10 -10z m-195 -40 c-3 -5 -13 -10
-21 -10 -8 0 -14 5 -14 10 0 6 9 10 21 10 11 0 17 -4 14 -10z m105 0 c0 -5 -4
-10 -10 -10 -5 0 -10 5 -10 10 0 6 5 10 10 10 6 0 10 -4 10 -10z m-3862 -12
c8 -8 12 -8 12 -1 0 23 155 -12 171 -39 6 -10 2 -151 -6 -223 -2 -16 -4 -57
-4 -90 -1 -37 -5 -55 -10 -47 -6 10 -11 1 -19 -27 -6 -24 -6 -43 -1 -47 5 -3
9 -17 8 -32 l-1 -27 -9 25 c-7 20 -8 18 -4 -14 9 -84 -20 -127 -45 -66 -11 27
-17 30 -57 30 -58 0 -108 -24 -121 -58 -15 -40 -40 -123 -46 -152 -2 -14 -3
25 -2 85 2 61 8 137 14 170 6 33 13 105 15 161 2 55 7 105 11 112 4 7 5 16 2
21 -11 17 24 164 46 198 26 37 29 38 46 21z m3898 -15 c-10 -10 -19 5 -10 18
6 11 8 11 12 0 2 -7 1 -15 -2 -18z m-36 -3 c0 -5 -4 -10 -10 -10 -5 0 -10 5
-10 10 0 6 5 10 10 10 6 0 10 -4 10 -10z m-60 -10 c0 -5 -2 -10 -4 -10 -3 0
-8 5 -11 10 -3 6 -1 10 4 10 6 0 11 -4 11 -10z m975 -10 c3 -5 1 -10 -4 -10
-6 0 -11 5 -11 10 0 6 2 10 4 10 3 0 8 -4 11 -10z m-845 -20 c0 -5 -4 -10 -10
-10 -5 0 -10 5 -10 10 0 6 5 10 10 10 6 0 10 -4 10 -10z m760 -10 c0 -5 -4
-10 -10 -10 -5 0 -10 5 -10 10 0 6 5 10 10 10 6 0 10 -4 10 -10z m-4800 -42
c0 -7 -9 -67 -20 -133 -11 -66 -20 -132 -20 -147 0 -16 -2 -28 -4 -28 -21 0
-154 63 -163 77 -14 21 -38 111 -48 176 l-7 44 119 10 c65 6 124 11 131 11 6
1 12 -4 12 -10z m4750 2 c0 -5 -4 -10 -10 -10 -5 0 -10 5 -10 10 0 6 5 10 10
10 6 0 10 -4 10 -10z m-890 -150 c0 -5 -7 -10 -15 -10 -8 0 -15 5 -15 10 0 6
7 10 15 10 8 0 15 -4 15 -10z m-388 -39 c13 -4 59 -11 103 -15 44 -4 89 -9
100 -11 27 -6 93 -16 130 -21 17 -1 40 -6 53 -10 13 -4 22 -2 22 5 0 6 8 11
18 11 15 0 15 2 2 11 -12 8 -11 10 5 7 11 -2 20 -10 20 -18 0 -10 9 -14 25
-13 45 4 87 -7 123 -31 20 -14 39 -21 43 -18 4 4 4 2 0 -5 -6 -11 42 -53 62
-53 6 0 13 19 17 43 22 131 34 30 14 -123 -17 -137 -63 -354 -79 -373 -4 -4
-33 16 -64 46 -149 140 -406 247 -596 247 l-86 0 -32 108 c-19 65 -29 117 -25
132 l6 24 10 -25 10 -24 4 23 c3 12 9 22 15 22 6 0 8 -11 6 -25 -3 -14 -1 -28
3 -31 5 -3 9 2 9 10 0 9 8 16 18 16 14 0 15 2 2 10 -13 8 -13 11 -1 19 7 5 11
15 9 22 -6 16 9 49 22 49 5 0 19 -4 32 -9z m395 -37 c-3 -3 -12 -4 -19 -1 -8
3 -5 6 6 6 11 1 17 -2 13 -5z m-550 -36 c-3 -8 -6 -5 -6 6 -1 11 2 17 5 13 3
-3 4 -12 1 -19z m-2428 -178 c0 -11 -3 -10 -14 4 -8 11 -12 29 -9 39 3 11 2
17 -3 14 -5 -3 -7 8 -5 26 5 31 6 31 18 -18 8 -27 14 -57 13 -65z m-321 67 c2
-12 -3 -17 -18 -17 -18 0 -20 3 -11 13 6 8 7 17 3 22 -4 4 0 6 8 3 8 -3 16
-12 18 -21z m-380 -127 c16 -30 11 -206 -8 -287 -12 -56 -56 -113 -85 -113
-13 0 -15 6 -10 30 5 24 3 30 -10 30 -14 0 -15 -3 -5 -15 9 -11 9 -15 1 -15
-7 0 -9 -4 -6 -10 12 -20 -16 -9 -40 15 -28 27 -30 47 -11 125 30 118 67 254
72 262 3 5 24 8 47 6 32 -2 44 -9 55 -28z m39 -42 c-3 -8 -6 -5 -6 6 -1 11 2
17 5 13 3 -3 4 -12 1 -19z m743 -58 c4 0 11 -7 14 -16 4 -12 2 -15 -9 -10 -17
6 -21 -9 -5 -19 6 -3 10 -16 10 -28 -1 -17 -5 -13 -20 17 -11 21 -18 48 -15
60 5 31 7 33 12 14 2 -10 8 -18 13 -18z m77 -142 c-3 -7 -5 -2 -5 12 0 14 2
19 5 13 2 -7 2 -19 0 -25z m1783 -22 c0 -3 -4 -8 -10 -11 -5 -3 -10 -1 -10 4
0 6 5 11 10 11 6 0 10 -2 10 -4z m1070 -176 c0 -5 -4 -10 -10 -10 -5 0 -10 5
-10 10 0 6 5 10 10 10 6 0 10 -4 10 -10z m-3480 -131 c0 -14 -7 -19 -29 -19
-17 0 -32 4 -35 9 -6 9 22 26 37 22 5 -1 5 4 1 11 -18 28 -12 42 7 19 10 -13
19 -32 19 -42z m3487 -9 c1 -11 -2 -20 -6 -20 -5 0 -11 9 -14 20 -3 12 0 20 7
20 6 0 12 -9 13 -20z"/>
<path d="M3972 5940 c0 -14 2 -19 5 -12 2 6 2 18 0 25 -3 6 -5 1 -5 -13z"/>
<path d="M3990 5940 c0 -5 5 -10 11 -10 5 0 7 5 4 10 -3 6 -8 10 -11 10 -2 0
-4 -4 -4 -10z"/>
<path d="M3973 5903 c-7 -2 -13 -13 -13 -23 0 -13 11 -19 43 -24 23 -4 81 -22
129 -40 48 -18 90 -31 93 -28 8 9 -45 37 -128 67 -53 19 -74 31 -65 37 7 4 -1
5 -21 1 -25 -4 -32 -3 -27 5 8 13 7 13 -11 5z"/>
<path d="M4018 5833 c7 -3 16 -2 19 1 4 3 -2 6 -13 5 -11 0 -14 -3 -6 -6z"/>
<path d="M3960 5820 c0 -5 7 -10 16 -10 8 0 12 5 9 10 -3 6 -10 10 -16 10 -5
0 -9 -4 -9 -10z"/>
<path d="M3992 5805 c-7 -8 -8 -15 -3 -15 6 0 8 -7 5 -15 -4 -8 -2 -15 4 -15
5 0 12 14 14 30 5 33 0 37 -20 15z"/>
<path d="M4030 5780 c0 -5 5 -10 10 -10 6 0 10 5 10 10 0 6 -4 10 -10 10 -5 0
-10 -4 -10 -10z"/>
<path d="M4123 5710 c14 -11 29 -20 34 -20 11 1 -37 40 -49 40 -6 0 1 -9 15
-20z"/>
<path d="M4180 5694 c0 -8 32 -33 43 -34 5 0 5 4 2 10 -8 13 -45 33 -45 24z"/>
<path d="M4720 5208 c0 -3 11 -17 25 -32 14 -15 25 -23 25 -18 0 5 -11 19 -25
32 -14 13 -25 21 -25 18z"/>
<path d="M3800 5624 c0 -8 5 -12 10 -9 6 4 8 11 5 16 -9 14 -15 11 -15 -7z"/>
<path d="M3660 5316 c0 -2 7 -7 16 -10 8 -3 12 -2 9 4 -6 10 -25 14 -25 6z"/>
<path d="M3650 5220 c0 -5 5 -10 10 -10 6 0 10 5 10 10 0 6 -4 10 -10 10 -5 0
-10 -4 -10 -10z"/>
<path d="M3741 5194 c0 -11 3 -14 6 -6 3 7 2 16 -1 19 -3 4 -6 -2 -5 -13z"/>
<path d="M3702 5100 c0 -14 2 -19 5 -12 2 6 2 18 0 25 -3 6 -5 1 -5 -13z"/>
<path d="M3760 5110 c-12 -8 -11 -10 8 -10 12 0 22 5 22 10 0 13 -11 13 -30 0z"/>
<path d="M3935 5060 c3 -5 8 -10 11 -10 2 0 4 5 4 10 0 6 -5 10 -11 10 -5 0
-7 -4 -4 -10z"/>
<path d="M4045 5030 c-3 -5 1 -10 10 -10 9 0 13 5 10 10 -3 6 -8 10 -10 10 -2
0 -7 -4 -10 -10z"/>
<path d="M4556 5296 c3 -8 13 -17 22 -21 13 -5 13 -2 -3 15 -21 24 -26 25 -19
6z"/>
<path d="M4670 4930 l0 -70 -37 19 c-21 11 -67 40 -103 65 -36 24 -67 43 -69
41 -12 -13 16 -37 86 -73 128 -69 123 -60 119 -197 -2 -65 -2 -124 1 -131 7
-20 20 -17 20 4 -1 9 0 63 1 120 l2 102 33 -37 c18 -21 55 -66 81 -100 26 -35
52 -63 57 -63 5 0 0 13 -12 29 -17 23 -23 48 -26 108 -5 92 -10 123 -22 123
-9 0 -6 -116 4 -153 4 -17 0 -15 -22 12 -15 19 -43 50 -60 70 -31 34 -33 40
-33 113 0 42 -4 80 -10 83 -6 4 -10 -20 -10 -65z"/>
<path d="M4800 4948 c0 -31 5 -60 10 -63 13 -8 13 85 0 105 -7 11 -10 -1 -10
-42z"/>
<path d="M3170 4660 c-13 -8 -12 -10 3 -10 9 0 17 5 17 10 0 12 -1 12 -20 0z"/>
<path d="M3188 4583 c7 -3 16 -2 19 1 4 3 -2 6 -13 5 -11 0 -14 -3 -6 -6z"/>
<path d="M3196 4542 c-2 -4 0 -14 6 -22 8 -12 9 -12 5 2 -3 9 -1 19 6 22 9 3
9 5 0 5 -6 1 -14 -3 -17 -7z"/>
<path d="M3090 3870 c0 -5 5 -10 11 -10 5 0 7 5 4 10 -3 6 -8 10 -11 10 -2 0
-4 -4 -4 -10z"/>
<path d="M4595 4311 c-3 -5 -2 -12 3 -15 5 -3 9 1 9 9 0 17 -3 19 -12 6z"/>
<path d="M4601 4104 c0 -11 3 -14 6 -6 3 7 2 16 -1 19 -3 4 -6 -2 -5 -13z"/>
<path d="M4950 3850 c0 -6 4 -9 9 -6 5 4 12 1 14 -4 3 -6 4 -5 3 2 -3 15 -26
23 -26 8z"/>
<path d="M4896 3814 c-4 -9 -4 -19 -1 -22 2 -3 7 3 11 12 4 9 4 19 1 22 -2 3
-7 -3 -11 -12z"/>
<path d="M4901 3754 c0 -11 3 -14 6 -6 3 7 2 16 -1 19 -3 4 -6 -2 -5 -13z"/>
<path d="M1740 4080 c6 -11 13 -20 16 -20 2 0 0 9 -6 20 -6 11 -13 20 -16 20
-2 0 0 -9 6 -20z"/>
<path d="M1721 4070 c-2 -29 14 -41 40 -31 l24 10 -27 0 c-16 1 -28 8 -31 19
-3 12 -5 13 -6 2z"/>
<path d="M4583 3344 c-8 -21 -1 -25 20 -9 15 11 16 13 2 19 -9 3 -18 -1 -22
-10z"/>
<path d="M4651 3304 c0 -11 3 -14 6 -6 3 7 2 16 -1 19 -3 4 -6 -2 -5 -13z"/>
<path d="M4661 3274 c-7 -19 -10 -38 -7 -41 3 -3 8 3 11 13 4 10 11 27 16 36
11 22 11 28 1 28 -4 0 -14 -16 -21 -36z"/>
<path d="M4606 3291 c-4 -7 -5 -15 -2 -18 9 -9 19 4 14 18 -4 11 -6 11 -12 0z"/>
<path d="M4687 3263 c-4 -3 -7 -15 -7 -26 0 -25 13 -14 15 13 2 22 1 23 -8 13z"/>
<path d="M4605 3250 c3 -5 8 -10 11 -10 2 0 4 5 4 10 0 6 -5 10 -11 10 -5 0
-7 -4 -4 -10z"/>
<path d="M4635 3189 c-4 -6 -5 -12 -2 -15 2 -3 7 2 10 11 7 17 1 20 -8 4z"/>
<path d="M4669 3173 c-13 -15 -12 -15 9 -4 23 12 28 21 13 21 -5 0 -15 -7 -22
-17z"/>
<path d="M4447 2903 c-6 -12 -19 -69 -14 -63 14 16 36 70 28 70 -5 0 -12 -3
-14 -7z"/>
<path d="M4841 3474 c0 -11 3 -14 6 -6 3 7 2 16 -1 19 -3 4 -6 -2 -5 -13z"/>
<path d="M4778 3393 c6 -2 18 -2 25 0 6 3 1 5 -13 5 -14 0 -19 -2 -12 -5z"/>
<path d="M4776 3354 c-4 -10 -1 -14 6 -12 15 5 23 28 10 28 -5 0 -13 -7 -16
-16z"/>
<path d="M4760 3295 c0 -8 5 -15 10 -15 6 0 10 7 10 15 0 8 -4 15 -10 15 -5 0
-10 -7 -10 -15z"/>
<path d="M1750 616 c0 -8 -5 -16 -12 -18 -8 -3 -8 -9 0 -24 11 -19 11 -19 12
2 0 11 5 25 11 31 8 8 8 13 0 17 -6 4 -11 1 -11 -8z"/>
<path d="M4625 990 c3 -5 8 -10 11 -10 2 0 4 5 4 10 0 6 -5 10 -11 10 -5 0 -7
-4 -4 -10z"/>
<path d="M4060 951 c0 -10 19 -25 25 -20 1 2 -3 10 -11 17 -8 7 -14 8 -14 3z"/>
<path d="M2756 9468 c30 -60 102 -153 150 -197 93 -83 209 -121 307 -99 l52
11 -58 13 c-78 18 -155 58 -206 105 -42 40 -115 143 -126 180 -5 16 -16 19
-71 19 l-65 0 17 -32z"/>
<path d="M2880 9489 c0 -6 24 -34 53 -63 56 -56 120 -91 183 -101 34 -5 31 -2
-22 18 -73 28 -107 51 -162 111 -44 48 -52 53 -52 35z"/>
<path d="M3665 9450 c-4 -12 -5 -24 -2 -27 3 -2 8 5 12 17 4 12 5 24 2 27 -3
2 -8 -5 -12 -17z"/>
<path d="M3504 9131 c-43 -11 -54 -19 -54 -41 0 -20 46 -41 89 -39 l26 1 -30
13 c-16 7 -33 11 -37 8 -5 -2 -8 0 -8 5 0 24 67 29 96 7 10 -8 26 -14 34 -14
10 0 8 3 -5 10 -17 7 -17 8 -2 6 26 -3 23 -21 -5 -29 -16 -5 -11 -6 17 -5 32
2 41 6 43 23 2 11 -6 28 -16 37 -22 20 -102 30 -148 18z"/>
<path d="M5390 3046 c0 -8 11 -37 25 -64 14 -28 25 -55 25 -60 0 -6 5 -14 11
-18 13 -8 8 11 -23 99 -19 53 -38 75 -38 43z"/>
<path d="M5246 2953 c8 -33 14 -42 14 -21 0 9 10 18 23 22 18 5 20 8 7 16 -8
5 -23 10 -33 10 -14 0 -16 -5 -11 -27z"/>
<path d="M5340 2944 c0 -11 27 -32 50 -38 24 -7 24 -6 -5 18 -29 25 -45 32
-45 20z"/>
<path d="M5286 2824 c-4 -9 -4 -19 -1 -22 2 -3 7 3 11 12 4 9 4 19 1 22 -2 3
-7 -3 -11 -12z"/>
<path d="M5280 2775 c0 -9 6 -12 15 -9 8 4 15 7 15 9 0 2 -7 5 -15 9 -9 3 -15
0 -15 -9z"/>
<path d="M4594 2682 c-78 -75 -104 -107 -114 -140 -10 -32 -11 -48 -3 -60 24
-38 102 9 124 75 6 18 19 38 29 43 20 11 50 4 50 -11 0 -14 17 -11 66 11 24
11 44 25 44 31 0 6 4 8 8 5 5 -3 21 5 37 18 l28 22 -34 14 c-19 7 -52 28 -74
45 -22 17 -45 34 -51 38 -5 3 -55 -38 -110 -91z m46 15 c0 -2 -9 -12 -20 -22
-24 -21 -27 -14 -4 9 15 15 24 20 24 13z m-41 -101 c-9 -8 -10 -7 -5 7 3 10 7
24 7 30 1 7 3 4 6 -7 3 -10 -1 -23 -8 -30z m-26 17 c-7 -2 -10 -12 -7 -21 5
-16 5 -16 -8 0 -14 16 -16 16 -33 0 -19 -17 -19 -17 -1 5 10 13 22 20 27 18 4
-3 11 0 14 6 4 5 10 7 14 3 3 -4 1 -9 -6 -11z"/>
<path d="M5294 2664 c3 -9 6 -19 6 -24 0 -4 9 -10 21 -13 15 -4 19 -2 15 10
-3 8 -6 20 -6 26 0 7 -4 6 -10 -3 -8 -13 -10 -12 -10 3 0 9 -5 17 -11 17 -6 0
-8 -7 -5 -16z"/>
<path d="M5235 2656 c-17 -12 -17 -13 8 -18 25 -5 44 12 30 26 -9 9 -17 7 -38
-8z"/>
<path d="M5310 2585 c0 -8 4 -15 8 -15 5 0 9 7 9 15 0 8 -4 15 -9 15 -4 0 -8
-7 -8 -15z"/>
<path d="M5315 2550 c3 -5 8 -10 11 -10 2 0 4 5 4 10 0 6 -5 10 -11 10 -5 0
-7 -4 -4 -10z"/>
<path d="M5321 2514 c0 -11 3 -14 6 -6 3 7 2 16 -1 19 -3 4 -6 -2 -5 -13z"/>
<path d="M5333 2440 c0 -25 2 -35 4 -22 2 12 2 32 0 45 -2 12 -4 2 -4 -23z"/>
<path d="M4475 2155 c-27 -25 -45 -45 -40 -45 6 0 31 20 55 45 56 57 49 57
-15 0z"/>
<path d="M4367 2060 c-23 -22 -37 -40 -32 -40 6 0 29 18 50 40 51 52 37 52
-18 0z"/>
<path d="M5398 1983 c7 -3 16 -2 19 1 4 3 -2 6 -13 5 -11 0 -14 -3 -6 -6z"/>
<path d="M5412 1930 c0 -14 2 -19 5 -12 2 6 2 18 0 25 -3 6 -5 1 -5 -13z"/>
<path d="M5430 1859 c9 -32 29 -53 39 -43 3 3 -1 9 -9 14 -11 7 -12 10 -2 10
23 0 9 45 -15 48 -20 3 -21 1 -13 -29z"/>
<path d="M5760 1410 c8 -5 29 -9 45 -9 26 0 27 2 10 9 -11 5 -31 9 -45 9 -20
1 -22 -1 -10 -9z"/>
<path d="M3 995 c11 -146 66 -515 81 -543 8 -16 30 -42 48 -58 34 -31 163
-166 258 -270 54 -59 145 -124 175 -124 30 0 13 16 -55 50 -39 19 -70 39 -70
45 0 6 -76 89 -170 185 -93 96 -173 186 -179 200 -5 14 -19 108 -31 210 -24
202 -48 362 -57 370 -3 3 -3 -26 0 -65z"/>
</g>
</svg>
